<mxfile host="Electron" modified="2024-01-15T03:44:19.621Z" agent="Mozilla/5.0 (Windows NT 10.0; Win64; x64) AppleWebKit/537.36 (KHTML, like Gecko) draw.io/22.1.18 Chrome/120.0.6099.199 Electron/28.1.2 Safari/537.36" etag="pKY1LWm8oVG3RyU0XZaI" version="22.1.18" type="device">
  <diagram name="ページ1" id="fKblahuklsGOTkprjz1I">
    <mxGraphModel dx="3623" dy="2162" grid="1" gridSize="10" guides="1" tooltips="1" connect="1" arrows="1" fold="1" page="1" pageScale="1" pageWidth="827" pageHeight="1169" math="0" shadow="0">
      <root>
        <mxCell id="0" />
        <mxCell id="1" parent="0" />
        <mxCell id="DAhngsFh_Zj9q6nhMHTs-1" value="TitleUI" style="swimlane;fontStyle=1;align=center;verticalAlign=top;childLayout=stackLayout;horizontal=1;startSize=26;horizontalStack=0;resizeParent=1;resizeParentMax=0;resizeLast=0;collapsible=1;marginBottom=0;whiteSpace=wrap;html=1;" parent="1" vertex="1">
          <mxGeometry x="530" y="163" width="160" height="112" as="geometry" />
        </mxCell>
        <mxCell id="j6sQ9rcBt3xvJTXsl_02-17" value="- buttons[]" style="text;strokeColor=none;fillColor=none;align=left;verticalAlign=top;spacingLeft=4;spacingRight=4;overflow=hidden;rotatable=0;points=[[0,0.5],[1,0.5]];portConstraint=eastwest;whiteSpace=wrap;html=1;" parent="DAhngsFh_Zj9q6nhMHTs-1" vertex="1">
          <mxGeometry y="26" width="160" height="26" as="geometry" />
        </mxCell>
        <mxCell id="DAhngsFh_Zj9q6nhMHTs-3" value="" style="line;strokeWidth=1;fillColor=none;align=left;verticalAlign=middle;spacingTop=-1;spacingLeft=3;spacingRight=3;rotatable=0;labelPosition=right;points=[];portConstraint=eastwest;strokeColor=inherit;" parent="DAhngsFh_Zj9q6nhMHTs-1" vertex="1">
          <mxGeometry y="52" width="160" height="8" as="geometry" />
        </mxCell>
        <mxCell id="DAhngsFh_Zj9q6nhMHTs-4" value="- GoGameSelect()" style="text;strokeColor=none;fillColor=none;align=left;verticalAlign=top;spacingLeft=4;spacingRight=4;overflow=hidden;rotatable=0;points=[[0,0.5],[1,0.5]];portConstraint=eastwest;whiteSpace=wrap;html=1;" parent="DAhngsFh_Zj9q6nhMHTs-1" vertex="1">
          <mxGeometry y="60" width="160" height="26" as="geometry" />
        </mxCell>
        <mxCell id="DAhngsFh_Zj9q6nhMHTs-14" value="- Exit()" style="text;strokeColor=none;fillColor=none;align=left;verticalAlign=top;spacingLeft=4;spacingRight=4;overflow=hidden;rotatable=0;points=[[0,0.5],[1,0.5]];portConstraint=eastwest;whiteSpace=wrap;html=1;" parent="DAhngsFh_Zj9q6nhMHTs-1" vertex="1">
          <mxGeometry y="86" width="160" height="26" as="geometry" />
        </mxCell>
        <mxCell id="DAhngsFh_Zj9q6nhMHTs-5" value="GameStateManager (Singleton)" style="swimlane;fontStyle=1;align=center;verticalAlign=top;childLayout=stackLayout;horizontal=1;startSize=26;horizontalStack=0;resizeParent=1;resizeParentMax=0;resizeLast=0;collapsible=1;marginBottom=0;whiteSpace=wrap;html=1;" parent="1" vertex="1">
          <mxGeometry x="170" y="137" width="220" height="164" as="geometry" />
        </mxCell>
        <mxCell id="0tLeJH_Af3l9i-FZOveU-22" value="+ Instance : GameStateManager" style="text;strokeColor=none;fillColor=none;align=left;verticalAlign=top;spacingLeft=4;spacingRight=4;overflow=hidden;rotatable=0;points=[[0,0.5],[1,0.5]];portConstraint=eastwest;whiteSpace=wrap;html=1;" parent="DAhngsFh_Zj9q6nhMHTs-5" vertex="1">
          <mxGeometry y="26" width="220" height="26" as="geometry" />
        </mxCell>
        <mxCell id="DAhngsFh_Zj9q6nhMHTs-13" value="+ currentState : GameState" style="text;strokeColor=none;fillColor=none;align=left;verticalAlign=top;spacingLeft=4;spacingRight=4;overflow=hidden;rotatable=0;points=[[0,0.5],[1,0.5]];portConstraint=eastwest;whiteSpace=wrap;html=1;" parent="DAhngsFh_Zj9q6nhMHTs-5" vertex="1">
          <mxGeometry y="52" width="220" height="26" as="geometry" />
        </mxCell>
        <mxCell id="DAhngsFh_Zj9q6nhMHTs-6" value="+ OnStateChanged : Action" style="text;strokeColor=none;fillColor=none;align=left;verticalAlign=top;spacingLeft=4;spacingRight=4;overflow=hidden;rotatable=0;points=[[0,0.5],[1,0.5]];portConstraint=eastwest;whiteSpace=wrap;html=1;" parent="DAhngsFh_Zj9q6nhMHTs-5" vertex="1">
          <mxGeometry y="78" width="220" height="26" as="geometry" />
        </mxCell>
        <mxCell id="DAhngsFh_Zj9q6nhMHTs-7" value="" style="line;strokeWidth=1;fillColor=none;align=left;verticalAlign=middle;spacingTop=-1;spacingLeft=3;spacingRight=3;rotatable=0;labelPosition=right;points=[];portConstraint=eastwest;strokeColor=inherit;" parent="DAhngsFh_Zj9q6nhMHTs-5" vertex="1">
          <mxGeometry y="104" width="220" height="8" as="geometry" />
        </mxCell>
        <mxCell id="DAhngsFh_Zj9q6nhMHTs-8" value="+ ChangeState(GameState)" style="text;strokeColor=none;fillColor=none;align=left;verticalAlign=top;spacingLeft=4;spacingRight=4;overflow=hidden;rotatable=0;points=[[0,0.5],[1,0.5]];portConstraint=eastwest;whiteSpace=wrap;html=1;" parent="DAhngsFh_Zj9q6nhMHTs-5" vertex="1">
          <mxGeometry y="112" width="220" height="26" as="geometry" />
        </mxCell>
        <mxCell id="yCt9xL6cB3qSo9_0wxPj-3" value="+ ChangeState(Games)" style="text;strokeColor=none;fillColor=none;align=left;verticalAlign=top;spacingLeft=4;spacingRight=4;overflow=hidden;rotatable=0;points=[[0,0.5],[1,0.5]];portConstraint=eastwest;whiteSpace=wrap;html=1;" parent="DAhngsFh_Zj9q6nhMHTs-5" vertex="1">
          <mxGeometry y="138" width="220" height="26" as="geometry" />
        </mxCell>
        <mxCell id="DAhngsFh_Zj9q6nhMHTs-9" value="&amp;lt;&amp;lt;enumeration&amp;gt;&amp;gt;&lt;br&gt;&lt;b&gt;GameState&lt;/b&gt;" style="swimlane;fontStyle=0;align=center;verticalAlign=top;childLayout=stackLayout;horizontal=1;startSize=40;horizontalStack=0;resizeParent=1;resizeParentMax=0;resizeLast=0;collapsible=0;marginBottom=0;html=1;whiteSpace=wrap;" parent="1" vertex="1">
          <mxGeometry x="20" y="-90" width="140" height="160" as="geometry" />
        </mxCell>
        <mxCell id="DAhngsFh_Zj9q6nhMHTs-10" value="Title" style="text;html=1;strokeColor=none;fillColor=none;align=left;verticalAlign=middle;spacingLeft=4;spacingRight=4;overflow=hidden;rotatable=0;points=[[0,0.5],[1,0.5]];portConstraint=eastwest;whiteSpace=wrap;" parent="DAhngsFh_Zj9q6nhMHTs-9" vertex="1">
          <mxGeometry y="40" width="140" height="30" as="geometry" />
        </mxCell>
        <mxCell id="DAhngsFh_Zj9q6nhMHTs-11" value="GameSelect" style="text;html=1;strokeColor=none;fillColor=none;align=left;verticalAlign=middle;spacingLeft=4;spacingRight=4;overflow=hidden;rotatable=0;points=[[0,0.5],[1,0.5]];portConstraint=eastwest;whiteSpace=wrap;" parent="DAhngsFh_Zj9q6nhMHTs-9" vertex="1">
          <mxGeometry y="70" width="140" height="30" as="geometry" />
        </mxCell>
        <mxCell id="DAhngsFh_Zj9q6nhMHTs-12" value="InGame" style="text;html=1;strokeColor=none;fillColor=none;align=left;verticalAlign=middle;spacingLeft=4;spacingRight=4;overflow=hidden;rotatable=0;points=[[0,0.5],[1,0.5]];portConstraint=eastwest;whiteSpace=wrap;" parent="DAhngsFh_Zj9q6nhMHTs-9" vertex="1">
          <mxGeometry y="100" width="140" height="30" as="geometry" />
        </mxCell>
        <mxCell id="DAhngsFh_Zj9q6nhMHTs-22" value="ExitGame" style="text;html=1;strokeColor=none;fillColor=none;align=left;verticalAlign=middle;spacingLeft=4;spacingRight=4;overflow=hidden;rotatable=0;points=[[0,0.5],[1,0.5]];portConstraint=eastwest;whiteSpace=wrap;" parent="DAhngsFh_Zj9q6nhMHTs-9" vertex="1">
          <mxGeometry y="130" width="140" height="30" as="geometry" />
        </mxCell>
        <mxCell id="DAhngsFh_Zj9q6nhMHTs-15" value="SceneLoader" style="swimlane;fontStyle=1;align=center;verticalAlign=top;childLayout=stackLayout;horizontal=1;startSize=26;horizontalStack=0;resizeParent=1;resizeParentMax=0;resizeLast=0;collapsible=1;marginBottom=0;whiteSpace=wrap;html=1;" parent="1" vertex="1">
          <mxGeometry x="185" y="-40" width="190" height="138" as="geometry" />
        </mxCell>
        <mxCell id="DAhngsFh_Zj9q6nhMHTs-16" value="- StateToSceneNameTable[]" style="text;strokeColor=none;fillColor=none;align=left;verticalAlign=top;spacingLeft=4;spacingRight=4;overflow=hidden;rotatable=0;points=[[0,0.5],[1,0.5]];portConstraint=eastwest;whiteSpace=wrap;html=1;" parent="DAhngsFh_Zj9q6nhMHTs-15" vertex="1">
          <mxGeometry y="26" width="190" height="26" as="geometry" />
        </mxCell>
        <mxCell id="NhQtk5reYERQCzmd6o7h-12" value="- GameToSceneNameTable[]" style="text;strokeColor=none;fillColor=none;align=left;verticalAlign=top;spacingLeft=4;spacingRight=4;overflow=hidden;rotatable=0;points=[[0,0.5],[1,0.5]];portConstraint=eastwest;whiteSpace=wrap;html=1;" parent="DAhngsFh_Zj9q6nhMHTs-15" vertex="1">
          <mxGeometry y="52" width="190" height="26" as="geometry" />
        </mxCell>
        <mxCell id="DAhngsFh_Zj9q6nhMHTs-17" value="" style="line;strokeWidth=1;fillColor=none;align=left;verticalAlign=middle;spacingTop=-1;spacingLeft=3;spacingRight=3;rotatable=0;labelPosition=right;points=[];portConstraint=eastwest;strokeColor=inherit;" parent="DAhngsFh_Zj9q6nhMHTs-15" vertex="1">
          <mxGeometry y="78" width="190" height="8" as="geometry" />
        </mxCell>
        <mxCell id="DAhngsFh_Zj9q6nhMHTs-18" value="+ LoadScene(GameState)" style="text;strokeColor=none;fillColor=none;align=left;verticalAlign=top;spacingLeft=4;spacingRight=4;overflow=hidden;rotatable=0;points=[[0,0.5],[1,0.5]];portConstraint=eastwest;whiteSpace=wrap;html=1;" parent="DAhngsFh_Zj9q6nhMHTs-15" vertex="1">
          <mxGeometry y="86" width="190" height="26" as="geometry" />
        </mxCell>
        <mxCell id="NhQtk5reYERQCzmd6o7h-11" value="+ LoadScene(Games)" style="text;strokeColor=none;fillColor=none;align=left;verticalAlign=top;spacingLeft=4;spacingRight=4;overflow=hidden;rotatable=0;points=[[0,0.5],[1,0.5]];portConstraint=eastwest;whiteSpace=wrap;html=1;" parent="DAhngsFh_Zj9q6nhMHTs-15" vertex="1">
          <mxGeometry y="112" width="190" height="26" as="geometry" />
        </mxCell>
        <mxCell id="DAhngsFh_Zj9q6nhMHTs-19" value="" style="endArrow=diamondThin;endFill=0;endSize=24;html=1;rounded=0;" parent="1" source="DAhngsFh_Zj9q6nhMHTs-15" target="DAhngsFh_Zj9q6nhMHTs-5" edge="1">
          <mxGeometry width="160" relative="1" as="geometry">
            <mxPoint x="470" y="270" as="sourcePoint" />
            <mxPoint x="630" y="270" as="targetPoint" />
          </mxGeometry>
        </mxCell>
        <mxCell id="DAhngsFh_Zj9q6nhMHTs-20" value="状態を変更" style="html=1;verticalAlign=bottom;endArrow=open;curved=0;rounded=0;endFill=0;endSize=12;" parent="1" source="DAhngsFh_Zj9q6nhMHTs-1" target="DAhngsFh_Zj9q6nhMHTs-5" edge="1">
          <mxGeometry width="80" relative="1" as="geometry">
            <mxPoint x="450" y="380" as="sourcePoint" />
            <mxPoint x="450" y="350" as="targetPoint" />
          </mxGeometry>
        </mxCell>
        <mxCell id="_DnX2QRDeC5mHLzfc5bT-1" value="GameUI" style="swimlane;fontStyle=1;align=center;verticalAlign=top;childLayout=stackLayout;horizontal=1;startSize=26;horizontalStack=0;resizeParent=1;resizeParentMax=0;resizeLast=0;collapsible=1;marginBottom=0;whiteSpace=wrap;html=1;" parent="1" vertex="1">
          <mxGeometry x="710" y="496" width="160" height="216" as="geometry" />
        </mxCell>
        <mxCell id="_DnX2QRDeC5mHLzfc5bT-3" value="- game : Games" style="text;strokeColor=none;fillColor=none;align=left;verticalAlign=top;spacingLeft=4;spacingRight=4;overflow=hidden;rotatable=0;points=[[0,0.5],[1,0.5]];portConstraint=eastwest;whiteSpace=wrap;html=1;" parent="_DnX2QRDeC5mHLzfc5bT-1" vertex="1">
          <mxGeometry y="26" width="160" height="26" as="geometry" />
        </mxCell>
        <mxCell id="dhE8wxLYe0IxyUodfGGd-8" value="- uiUnockedSprite" style="text;strokeColor=none;fillColor=none;align=left;verticalAlign=top;spacingLeft=4;spacingRight=4;overflow=hidden;rotatable=0;points=[[0,0.5],[1,0.5]];portConstraint=eastwest;whiteSpace=wrap;html=1;" parent="_DnX2QRDeC5mHLzfc5bT-1" vertex="1">
          <mxGeometry y="52" width="160" height="26" as="geometry" />
        </mxCell>
        <mxCell id="dhE8wxLYe0IxyUodfGGd-7" value="- uiLockedSprite" style="text;strokeColor=none;fillColor=none;align=left;verticalAlign=top;spacingLeft=4;spacingRight=4;overflow=hidden;rotatable=0;points=[[0,0.5],[1,0.5]];portConstraint=eastwest;whiteSpace=wrap;html=1;" parent="_DnX2QRDeC5mHLzfc5bT-1" vertex="1">
          <mxGeometry y="78" width="160" height="26" as="geometry" />
        </mxCell>
        <mxCell id="_DnX2QRDeC5mHLzfc5bT-2" value="" style="line;strokeWidth=1;fillColor=none;align=left;verticalAlign=middle;spacingTop=-1;spacingLeft=3;spacingRight=3;rotatable=0;labelPosition=right;points=[];portConstraint=eastwest;strokeColor=inherit;" parent="_DnX2QRDeC5mHLzfc5bT-1" vertex="1">
          <mxGeometry y="104" width="160" height="8" as="geometry" />
        </mxCell>
        <mxCell id="dhE8wxLYe0IxyUodfGGd-5" value="+ Unlock()" style="text;strokeColor=none;fillColor=none;align=left;verticalAlign=top;spacingLeft=4;spacingRight=4;overflow=hidden;rotatable=0;points=[[0,0.5],[1,0.5]];portConstraint=eastwest;whiteSpace=wrap;html=1;" parent="_DnX2QRDeC5mHLzfc5bT-1" vertex="1">
          <mxGeometry y="112" width="160" height="26" as="geometry" />
        </mxCell>
        <mxCell id="dhE8wxLYe0IxyUodfGGd-6" value="+ Lock()" style="text;strokeColor=none;fillColor=none;align=left;verticalAlign=top;spacingLeft=4;spacingRight=4;overflow=hidden;rotatable=0;points=[[0,0.5],[1,0.5]];portConstraint=eastwest;whiteSpace=wrap;html=1;" parent="_DnX2QRDeC5mHLzfc5bT-1" vertex="1">
          <mxGeometry y="138" width="160" height="26" as="geometry" />
        </mxCell>
        <mxCell id="_DnX2QRDeC5mHLzfc5bT-10" value="+ ShowDetails()" style="text;strokeColor=none;fillColor=none;align=left;verticalAlign=top;spacingLeft=4;spacingRight=4;overflow=hidden;rotatable=0;points=[[0,0.5],[1,0.5]];portConstraint=eastwest;whiteSpace=wrap;html=1;" parent="_DnX2QRDeC5mHLzfc5bT-1" vertex="1">
          <mxGeometry y="164" width="160" height="26" as="geometry" />
        </mxCell>
        <mxCell id="_DnX2QRDeC5mHLzfc5bT-4" value="+ PlayGame()" style="text;strokeColor=none;fillColor=none;align=left;verticalAlign=top;spacingLeft=4;spacingRight=4;overflow=hidden;rotatable=0;points=[[0,0.5],[1,0.5]];portConstraint=eastwest;whiteSpace=wrap;html=1;" parent="_DnX2QRDeC5mHLzfc5bT-1" vertex="1">
          <mxGeometry y="190" width="160" height="26" as="geometry" />
        </mxCell>
        <mxCell id="_DnX2QRDeC5mHLzfc5bT-5" value="&amp;lt;&amp;lt;enumeration&amp;gt;&amp;gt;&lt;br&gt;&lt;b&gt;Games&lt;/b&gt;" style="swimlane;fontStyle=0;align=center;verticalAlign=top;childLayout=stackLayout;horizontal=1;startSize=40;horizontalStack=0;resizeParent=1;resizeParentMax=0;resizeLast=0;collapsible=0;marginBottom=0;html=1;whiteSpace=wrap;" parent="1" vertex="1">
          <mxGeometry x="940" y="620" width="140" height="70" as="geometry" />
        </mxCell>
        <mxCell id="_DnX2QRDeC5mHLzfc5bT-8" value="Janken" style="text;html=1;strokeColor=none;fillColor=none;align=left;verticalAlign=middle;spacingLeft=4;spacingRight=4;overflow=hidden;rotatable=0;points=[[0,0.5],[1,0.5]];portConstraint=eastwest;whiteSpace=wrap;" parent="_DnX2QRDeC5mHLzfc5bT-5" vertex="1">
          <mxGeometry y="40" width="140" height="30" as="geometry" />
        </mxCell>
        <mxCell id="_DnX2QRDeC5mHLzfc5bT-18" value="BaseUI" style="swimlane;fontStyle=1;align=center;verticalAlign=top;childLayout=stackLayout;horizontal=1;startSize=26;horizontalStack=0;resizeParent=1;resizeParentMax=0;resizeLast=0;collapsible=1;marginBottom=0;whiteSpace=wrap;html=1;" parent="1" vertex="1">
          <mxGeometry x="420" y="990" width="200" height="268" as="geometry" />
        </mxCell>
        <mxCell id="dhE8wxLYe0IxyUodfGGd-3" value="# Animation" style="text;strokeColor=none;fillColor=none;align=left;verticalAlign=top;spacingLeft=4;spacingRight=4;overflow=hidden;rotatable=0;points=[[0,0.5],[1,0.5]];portConstraint=eastwest;whiteSpace=wrap;html=1;" parent="_DnX2QRDeC5mHLzfc5bT-18" vertex="1">
          <mxGeometry y="26" width="200" height="26" as="geometry" />
        </mxCell>
        <mxCell id="4SkyMIcwRhMA-IvSOk0w-36" value="# buttons[]" style="text;strokeColor=none;fillColor=none;align=left;verticalAlign=top;spacingLeft=4;spacingRight=4;overflow=hidden;rotatable=0;points=[[0,0.5],[1,0.5]];portConstraint=eastwest;whiteSpace=wrap;html=1;" parent="_DnX2QRDeC5mHLzfc5bT-18" vertex="1">
          <mxGeometry y="52" width="200" height="26" as="geometry" />
        </mxCell>
        <mxCell id="_DnX2QRDeC5mHLzfc5bT-20" value="# backgroundSprite" style="text;strokeColor=none;fillColor=none;align=left;verticalAlign=top;spacingLeft=4;spacingRight=4;overflow=hidden;rotatable=0;points=[[0,0.5],[1,0.5]];portConstraint=eastwest;whiteSpace=wrap;html=1;" parent="_DnX2QRDeC5mHLzfc5bT-18" vertex="1">
          <mxGeometry y="78" width="200" height="26" as="geometry" />
        </mxCell>
        <mxCell id="j6sQ9rcBt3xvJTXsl_02-45" value="# uiState" style="text;strokeColor=none;fillColor=none;align=left;verticalAlign=top;spacingLeft=4;spacingRight=4;overflow=hidden;rotatable=0;points=[[0,0.5],[1,0.5]];portConstraint=eastwest;whiteSpace=wrap;html=1;" parent="_DnX2QRDeC5mHLzfc5bT-18" vertex="1">
          <mxGeometry y="104" width="200" height="26" as="geometry" />
        </mxCell>
        <mxCell id="dhE8wxLYe0IxyUodfGGd-1" value="+ OnClosed : Action" style="text;strokeColor=none;fillColor=none;align=left;verticalAlign=top;spacingLeft=4;spacingRight=4;overflow=hidden;rotatable=0;points=[[0,0.5],[1,0.5]];portConstraint=eastwest;whiteSpace=wrap;html=1;" parent="_DnX2QRDeC5mHLzfc5bT-18" vertex="1">
          <mxGeometry y="130" width="200" height="26" as="geometry" />
        </mxCell>
        <mxCell id="_DnX2QRDeC5mHLzfc5bT-21" value="" style="line;strokeWidth=1;fillColor=none;align=left;verticalAlign=middle;spacingTop=-1;spacingLeft=3;spacingRight=3;rotatable=0;labelPosition=right;points=[];portConstraint=eastwest;strokeColor=inherit;" parent="_DnX2QRDeC5mHLzfc5bT-18" vertex="1">
          <mxGeometry y="156" width="200" height="8" as="geometry" />
        </mxCell>
        <mxCell id="_DnX2QRDeC5mHLzfc5bT-23" value="+ Open()" style="text;strokeColor=none;fillColor=none;align=left;verticalAlign=top;spacingLeft=4;spacingRight=4;overflow=hidden;rotatable=0;points=[[0,0.5],[1,0.5]];portConstraint=eastwest;whiteSpace=wrap;html=1;" parent="_DnX2QRDeC5mHLzfc5bT-18" vertex="1">
          <mxGeometry y="164" width="200" height="26" as="geometry" />
        </mxCell>
        <mxCell id="_DnX2QRDeC5mHLzfc5bT-22" value="+ Close()" style="text;strokeColor=none;fillColor=none;align=left;verticalAlign=top;spacingLeft=4;spacingRight=4;overflow=hidden;rotatable=0;points=[[0,0.5],[1,0.5]];portConstraint=eastwest;whiteSpace=wrap;html=1;" parent="_DnX2QRDeC5mHLzfc5bT-18" vertex="1">
          <mxGeometry y="190" width="200" height="26" as="geometry" />
        </mxCell>
        <mxCell id="dhE8wxLYe0IxyUodfGGd-4" value="- PlayAnim(bool isUIOpening)" style="text;strokeColor=none;fillColor=none;align=left;verticalAlign=top;spacingLeft=4;spacingRight=4;overflow=hidden;rotatable=0;points=[[0,0.5],[1,0.5]];portConstraint=eastwest;whiteSpace=wrap;html=1;" parent="_DnX2QRDeC5mHLzfc5bT-18" vertex="1">
          <mxGeometry y="216" width="200" height="26" as="geometry" />
        </mxCell>
        <mxCell id="NhQtk5reYERQCzmd6o7h-19" value="- OnAnimEnded()" style="text;strokeColor=none;fillColor=none;align=left;verticalAlign=top;spacingLeft=4;spacingRight=4;overflow=hidden;rotatable=0;points=[[0,0.5],[1,0.5]];portConstraint=eastwest;whiteSpace=wrap;html=1;" parent="_DnX2QRDeC5mHLzfc5bT-18" vertex="1">
          <mxGeometry y="242" width="200" height="26" as="geometry" />
        </mxCell>
        <mxCell id="dhE8wxLYe0IxyUodfGGd-9" value="GameDetailUI" style="swimlane;fontStyle=1;align=center;verticalAlign=top;childLayout=stackLayout;horizontal=1;startSize=26;horizontalStack=0;resizeParent=1;resizeParentMax=0;resizeLast=0;collapsible=1;marginBottom=0;whiteSpace=wrap;html=1;" parent="1" vertex="1">
          <mxGeometry x="710" y="810" width="160" height="60" as="geometry" />
        </mxCell>
        <mxCell id="dhE8wxLYe0IxyUodfGGd-10" value="- detailText" style="text;strokeColor=none;fillColor=none;align=left;verticalAlign=top;spacingLeft=4;spacingRight=4;overflow=hidden;rotatable=0;points=[[0,0.5],[1,0.5]];portConstraint=eastwest;whiteSpace=wrap;html=1;" parent="dhE8wxLYe0IxyUodfGGd-9" vertex="1">
          <mxGeometry y="26" width="160" height="26" as="geometry" />
        </mxCell>
        <mxCell id="dhE8wxLYe0IxyUodfGGd-11" value="" style="line;strokeWidth=1;fillColor=none;align=left;verticalAlign=middle;spacingTop=-1;spacingLeft=3;spacingRight=3;rotatable=0;labelPosition=right;points=[];portConstraint=eastwest;strokeColor=inherit;" parent="dhE8wxLYe0IxyUodfGGd-9" vertex="1">
          <mxGeometry y="52" width="160" height="8" as="geometry" />
        </mxCell>
        <mxCell id="dhE8wxLYe0IxyUodfGGd-14" value="Extends" style="endArrow=block;endSize=16;endFill=0;html=1;rounded=0;" parent="1" source="4SkyMIcwRhMA-IvSOk0w-51" target="_DnX2QRDeC5mHLzfc5bT-18" edge="1">
          <mxGeometry width="160" relative="1" as="geometry">
            <mxPoint x="440" y="742.5" as="sourcePoint" />
            <mxPoint x="600" y="742.5" as="targetPoint" />
          </mxGeometry>
        </mxCell>
        <mxCell id="dhE8wxLYe0IxyUodfGGd-15" value="" style="endArrow=diamondThin;endFill=0;endSize=24;html=1;rounded=0;" parent="1" source="dhE8wxLYe0IxyUodfGGd-9" target="_DnX2QRDeC5mHLzfc5bT-1" edge="1">
          <mxGeometry width="160" relative="1" as="geometry">
            <mxPoint x="960" y="716" as="sourcePoint" />
            <mxPoint x="880" y="676" as="targetPoint" />
          </mxGeometry>
        </mxCell>
        <mxCell id="dhE8wxLYe0IxyUodfGGd-16" value="状態を変更" style="html=1;verticalAlign=bottom;endArrow=open;rounded=0;endFill=0;endSize=12;edgeStyle=orthogonalEdgeStyle;" parent="1" source="4SkyMIcwRhMA-IvSOk0w-37" target="DAhngsFh_Zj9q6nhMHTs-5" edge="1">
          <mxGeometry x="0.0516" y="-90" width="80" relative="1" as="geometry">
            <mxPoint x="280" y="330" as="sourcePoint" />
            <mxPoint x="250" y="270" as="targetPoint" />
            <Array as="points">
              <mxPoint x="420" y="350" />
              <mxPoint x="280" y="350" />
            </Array>
            <mxPoint x="90" y="90" as="offset" />
          </mxGeometry>
        </mxCell>
        <mxCell id="dhE8wxLYe0IxyUodfGGd-17" value="JankenManager" style="swimlane;fontStyle=1;align=center;verticalAlign=top;childLayout=stackLayout;horizontal=1;startSize=26;horizontalStack=0;resizeParent=1;resizeParentMax=0;resizeLast=0;collapsible=1;marginBottom=0;whiteSpace=wrap;html=1;" parent="1" vertex="1">
          <mxGeometry x="-545" y="466" width="290" height="398" as="geometry">
            <mxRectangle x="-545" y="466" width="130" height="30" as="alternateBounds" />
          </mxGeometry>
        </mxCell>
        <mxCell id="dhE8wxLYe0IxyUodfGGd-18" value="- currentState : JankenState" style="text;strokeColor=none;fillColor=none;align=left;verticalAlign=top;spacingLeft=4;spacingRight=4;overflow=hidden;rotatable=0;points=[[0,0.5],[1,0.5]];portConstraint=eastwest;whiteSpace=wrap;html=1;" parent="dhE8wxLYe0IxyUodfGGd-17" vertex="1">
          <mxGeometry y="26" width="290" height="26" as="geometry" />
        </mxCell>
        <mxCell id="dhE8wxLYe0IxyUodfGGd-19" value="- jankenText" style="text;strokeColor=none;fillColor=none;align=left;verticalAlign=top;spacingLeft=4;spacingRight=4;overflow=hidden;rotatable=0;points=[[0,0.5],[1,0.5]];portConstraint=eastwest;whiteSpace=wrap;html=1;" parent="dhE8wxLYe0IxyUodfGGd-17" vertex="1">
          <mxGeometry y="52" width="290" height="26" as="geometry" />
        </mxCell>
        <mxCell id="dhE8wxLYe0IxyUodfGGd-34" value="- preGameUI : BaseUI" style="text;strokeColor=none;fillColor=none;align=left;verticalAlign=top;spacingLeft=4;spacingRight=4;overflow=hidden;rotatable=0;points=[[0,0.5],[1,0.5]];portConstraint=eastwest;whiteSpace=wrap;html=1;" parent="dhE8wxLYe0IxyUodfGGd-17" vertex="1">
          <mxGeometry y="78" width="290" height="26" as="geometry" />
        </mxCell>
        <mxCell id="dhE8wxLYe0IxyUodfGGd-35" value="- HandSelectUI" style="text;strokeColor=none;fillColor=none;align=left;verticalAlign=top;spacingLeft=4;spacingRight=4;overflow=hidden;rotatable=0;points=[[0,0.5],[1,0.5]];portConstraint=eastwest;whiteSpace=wrap;html=1;" parent="dhE8wxLYe0IxyUodfGGd-17" vertex="1">
          <mxGeometry y="104" width="290" height="26" as="geometry" />
        </mxCell>
        <mxCell id="dhE8wxLYe0IxyUodfGGd-47" value="- ResultUI" style="text;strokeColor=none;fillColor=none;align=left;verticalAlign=top;spacingLeft=4;spacingRight=4;overflow=hidden;rotatable=0;points=[[0,0.5],[1,0.5]];portConstraint=eastwest;whiteSpace=wrap;html=1;" parent="dhE8wxLYe0IxyUodfGGd-17" vertex="1">
          <mxGeometry y="130" width="290" height="26" as="geometry" />
        </mxCell>
        <mxCell id="_ihpI4agDZquPOQ2BUvL-21" value="- players : Dictionary&amp;lt;IJankenPlayer, Character&amp;gt;" style="text;strokeColor=none;fillColor=none;align=left;verticalAlign=top;spacingLeft=4;spacingRight=4;overflow=hidden;rotatable=0;points=[[0,0.5],[1,0.5]];portConstraint=eastwest;whiteSpace=wrap;html=1;" parent="dhE8wxLYe0IxyUodfGGd-17" vertex="1">
          <mxGeometry y="156" width="290" height="26" as="geometry" />
        </mxCell>
        <mxCell id="dhE8wxLYe0IxyUodfGGd-20" value="" style="line;strokeWidth=1;fillColor=none;align=left;verticalAlign=middle;spacingTop=-1;spacingLeft=3;spacingRight=3;rotatable=0;labelPosition=right;points=[];portConstraint=eastwest;strokeColor=inherit;" parent="dhE8wxLYe0IxyUodfGGd-17" vertex="1">
          <mxGeometry y="182" width="290" height="8" as="geometry" />
        </mxCell>
        <mxCell id="4SkyMIcwRhMA-IvSOk0w-29" value="- Init()" style="text;strokeColor=none;fillColor=none;align=left;verticalAlign=top;spacingLeft=4;spacingRight=4;overflow=hidden;rotatable=0;points=[[0,0.5],[1,0.5]];portConstraint=eastwest;whiteSpace=wrap;html=1;" parent="dhE8wxLYe0IxyUodfGGd-17" vertex="1">
          <mxGeometry y="190" width="290" height="26" as="geometry" />
        </mxCell>
        <mxCell id="0tLeJH_Af3l9i-FZOveU-12" value="- SelectHand()" style="text;strokeColor=none;fillColor=none;align=left;verticalAlign=top;spacingLeft=4;spacingRight=4;overflow=hidden;rotatable=0;points=[[0,0.5],[1,0.5]];portConstraint=eastwest;whiteSpace=wrap;html=1;" parent="dhE8wxLYe0IxyUodfGGd-17" vertex="1">
          <mxGeometry y="216" width="290" height="26" as="geometry" />
        </mxCell>
        <mxCell id="4SkyMIcwRhMA-IvSOk0w-24" value="- OnHandSelected()" style="text;strokeColor=none;fillColor=none;align=left;verticalAlign=top;spacingLeft=4;spacingRight=4;overflow=hidden;rotatable=0;points=[[0,0.5],[1,0.5]];portConstraint=eastwest;whiteSpace=wrap;html=1;" parent="dhE8wxLYe0IxyUodfGGd-17" vertex="1">
          <mxGeometry y="242" width="290" height="26" as="geometry" />
        </mxCell>
        <mxCell id="0tLeJH_Af3l9i-FZOveU-10" value="- OnDraw()" style="text;strokeColor=none;fillColor=none;align=left;verticalAlign=top;spacingLeft=4;spacingRight=4;overflow=hidden;rotatable=0;points=[[0,0.5],[1,0.5]];portConstraint=eastwest;whiteSpace=wrap;html=1;" parent="dhE8wxLYe0IxyUodfGGd-17" vertex="1">
          <mxGeometry y="268" width="290" height="26" as="geometry" />
        </mxCell>
        <mxCell id="_58Jos7XsoTqrODfJy7j-8" value="- OnResult()" style="text;strokeColor=none;fillColor=none;align=left;verticalAlign=top;spacingLeft=4;spacingRight=4;overflow=hidden;rotatable=0;points=[[0,0.5],[1,0.5]];portConstraint=eastwest;whiteSpace=wrap;html=1;" parent="dhE8wxLYe0IxyUodfGGd-17" vertex="1">
          <mxGeometry y="294" width="290" height="26" as="geometry" />
        </mxCell>
        <mxCell id="4SkyMIcwRhMA-IvSOk0w-33" value="- OnQuitResult()" style="text;strokeColor=none;fillColor=none;align=left;verticalAlign=top;spacingLeft=4;spacingRight=4;overflow=hidden;rotatable=0;points=[[0,0.5],[1,0.5]];portConstraint=eastwest;whiteSpace=wrap;html=1;" parent="dhE8wxLYe0IxyUodfGGd-17" vertex="1">
          <mxGeometry y="320" width="290" height="26" as="geometry" />
        </mxCell>
        <mxCell id="4SkyMIcwRhMA-IvSOk0w-27" value="- Replay()" style="text;strokeColor=none;fillColor=none;align=left;verticalAlign=top;spacingLeft=4;spacingRight=4;overflow=hidden;rotatable=0;points=[[0,0.5],[1,0.5]];portConstraint=eastwest;whiteSpace=wrap;html=1;" parent="dhE8wxLYe0IxyUodfGGd-17" vertex="1">
          <mxGeometry y="346" width="290" height="26" as="geometry" />
        </mxCell>
        <mxCell id="4SkyMIcwRhMA-IvSOk0w-28" value="- QuitGame()" style="text;strokeColor=none;fillColor=none;align=left;verticalAlign=top;spacingLeft=4;spacingRight=4;overflow=hidden;rotatable=0;points=[[0,0.5],[1,0.5]];portConstraint=eastwest;whiteSpace=wrap;html=1;" parent="dhE8wxLYe0IxyUodfGGd-17" vertex="1">
          <mxGeometry y="372" width="290" height="26" as="geometry" />
        </mxCell>
        <mxCell id="dhE8wxLYe0IxyUodfGGd-22" value="&amp;lt;&amp;lt;enumeration&amp;gt;&amp;gt;&lt;br&gt;&lt;b&gt;JankenState&lt;/b&gt;" style="swimlane;fontStyle=0;align=center;verticalAlign=top;childLayout=stackLayout;horizontal=1;startSize=40;horizontalStack=0;resizeParent=1;resizeParentMax=0;resizeLast=0;collapsible=0;marginBottom=0;html=1;whiteSpace=wrap;" parent="1" vertex="1">
          <mxGeometry x="-170" y="585" width="140" height="190" as="geometry" />
        </mxCell>
        <mxCell id="dhE8wxLYe0IxyUodfGGd-23" value="PreGame" style="text;html=1;strokeColor=none;fillColor=none;align=left;verticalAlign=middle;spacingLeft=4;spacingRight=4;overflow=hidden;rotatable=0;points=[[0,0.5],[1,0.5]];portConstraint=eastwest;whiteSpace=wrap;" parent="dhE8wxLYe0IxyUodfGGd-22" vertex="1">
          <mxGeometry y="40" width="140" height="30" as="geometry" />
        </mxCell>
        <mxCell id="0tLeJH_Af3l9i-FZOveU-11" value="HandSelect" style="text;html=1;strokeColor=none;fillColor=none;align=left;verticalAlign=middle;spacingLeft=4;spacingRight=4;overflow=hidden;rotatable=0;points=[[0,0.5],[1,0.5]];portConstraint=eastwest;whiteSpace=wrap;" parent="dhE8wxLYe0IxyUodfGGd-22" vertex="1">
          <mxGeometry y="70" width="140" height="30" as="geometry" />
        </mxCell>
        <mxCell id="dhE8wxLYe0IxyUodfGGd-25" value="ShowingHands" style="text;html=1;strokeColor=none;fillColor=none;align=left;verticalAlign=middle;spacingLeft=4;spacingRight=4;overflow=hidden;rotatable=0;points=[[0,0.5],[1,0.5]];portConstraint=eastwest;whiteSpace=wrap;" parent="dhE8wxLYe0IxyUodfGGd-22" vertex="1">
          <mxGeometry y="100" width="140" height="30" as="geometry" />
        </mxCell>
        <mxCell id="dhE8wxLYe0IxyUodfGGd-24" value="HandSelectAgain" style="text;html=1;strokeColor=none;fillColor=none;align=left;verticalAlign=middle;spacingLeft=4;spacingRight=4;overflow=hidden;rotatable=0;points=[[0,0.5],[1,0.5]];portConstraint=eastwest;whiteSpace=wrap;" parent="dhE8wxLYe0IxyUodfGGd-22" vertex="1">
          <mxGeometry y="130" width="140" height="30" as="geometry" />
        </mxCell>
        <mxCell id="dhE8wxLYe0IxyUodfGGd-26" value="Result" style="text;html=1;strokeColor=none;fillColor=none;align=left;verticalAlign=middle;spacingLeft=4;spacingRight=4;overflow=hidden;rotatable=0;points=[[0,0.5],[1,0.5]];portConstraint=eastwest;whiteSpace=wrap;" parent="dhE8wxLYe0IxyUodfGGd-22" vertex="1">
          <mxGeometry y="160" width="140" height="30" as="geometry" />
        </mxCell>
        <mxCell id="dhE8wxLYe0IxyUodfGGd-27" value="HandSelectUI" style="swimlane;fontStyle=1;align=center;verticalAlign=top;childLayout=stackLayout;horizontal=1;startSize=26;horizontalStack=0;resizeParent=1;resizeParentMax=0;resizeLast=0;collapsible=1;marginBottom=0;whiteSpace=wrap;html=1;" parent="1" vertex="1">
          <mxGeometry x="-495" y="976" width="200" height="86" as="geometry" />
        </mxCell>
        <mxCell id="dhE8wxLYe0IxyUodfGGd-29" value="+ selectedHand : JankenHand" style="text;strokeColor=none;fillColor=none;align=left;verticalAlign=top;spacingLeft=4;spacingRight=4;overflow=hidden;rotatable=0;points=[[0,0.5],[1,0.5]];portConstraint=eastwest;whiteSpace=wrap;html=1;" parent="dhE8wxLYe0IxyUodfGGd-27" vertex="1">
          <mxGeometry y="26" width="200" height="26" as="geometry" />
        </mxCell>
        <mxCell id="dhE8wxLYe0IxyUodfGGd-30" value="" style="line;strokeWidth=1;fillColor=none;align=left;verticalAlign=middle;spacingTop=-1;spacingLeft=3;spacingRight=3;rotatable=0;labelPosition=right;points=[];portConstraint=eastwest;strokeColor=inherit;" parent="dhE8wxLYe0IxyUodfGGd-27" vertex="1">
          <mxGeometry y="52" width="200" height="8" as="geometry" />
        </mxCell>
        <mxCell id="dhE8wxLYe0IxyUodfGGd-31" value="+ SelectHand(JankenHand)" style="text;strokeColor=none;fillColor=none;align=left;verticalAlign=top;spacingLeft=4;spacingRight=4;overflow=hidden;rotatable=0;points=[[0,0.5],[1,0.5]];portConstraint=eastwest;whiteSpace=wrap;html=1;" parent="dhE8wxLYe0IxyUodfGGd-27" vertex="1">
          <mxGeometry y="60" width="200" height="26" as="geometry" />
        </mxCell>
        <mxCell id="dhE8wxLYe0IxyUodfGGd-36" value="PreGameUI" style="swimlane;fontStyle=1;align=center;verticalAlign=top;childLayout=stackLayout;horizontal=1;startSize=26;horizontalStack=0;resizeParent=1;resizeParentMax=0;resizeLast=0;collapsible=1;marginBottom=0;whiteSpace=wrap;html=1;" parent="1" vertex="1">
          <mxGeometry x="-725" y="976" width="200" height="34" as="geometry">
            <mxRectangle x="-725" y="956" width="110" height="30" as="alternateBounds" />
          </mxGeometry>
        </mxCell>
        <mxCell id="dhE8wxLYe0IxyUodfGGd-39" value="" style="line;strokeWidth=1;fillColor=none;align=left;verticalAlign=middle;spacingTop=-1;spacingLeft=3;spacingRight=3;rotatable=0;labelPosition=right;points=[];portConstraint=eastwest;strokeColor=inherit;" parent="dhE8wxLYe0IxyUodfGGd-36" vertex="1">
          <mxGeometry y="26" width="200" height="8" as="geometry" />
        </mxCell>
        <mxCell id="dhE8wxLYe0IxyUodfGGd-43" value="ResultUI" style="swimlane;fontStyle=1;align=center;verticalAlign=top;childLayout=stackLayout;horizontal=1;startSize=26;horizontalStack=0;resizeParent=1;resizeParentMax=0;resizeLast=0;collapsible=1;marginBottom=0;whiteSpace=wrap;html=1;" parent="1" vertex="1">
          <mxGeometry x="-265" y="976" width="200" height="138" as="geometry" />
        </mxCell>
        <mxCell id="NhQtk5reYERQCzmd6o7h-1" value="+ doesPlayerWin : bool" style="text;strokeColor=none;fillColor=none;align=left;verticalAlign=top;spacingLeft=4;spacingRight=4;overflow=hidden;rotatable=0;points=[[0,0.5],[1,0.5]];portConstraint=eastwest;whiteSpace=wrap;html=1;" parent="dhE8wxLYe0IxyUodfGGd-43" vertex="1">
          <mxGeometry y="26" width="200" height="26" as="geometry" />
        </mxCell>
        <mxCell id="dhE8wxLYe0IxyUodfGGd-44" value="+ pushedButton : PushedButton" style="text;strokeColor=none;fillColor=none;align=left;verticalAlign=top;spacingLeft=4;spacingRight=4;overflow=hidden;rotatable=0;points=[[0,0.5],[1,0.5]];portConstraint=eastwest;whiteSpace=wrap;html=1;" parent="dhE8wxLYe0IxyUodfGGd-43" vertex="1">
          <mxGeometry y="52" width="200" height="26" as="geometry" />
        </mxCell>
        <mxCell id="dhE8wxLYe0IxyUodfGGd-45" value="" style="line;strokeWidth=1;fillColor=none;align=left;verticalAlign=middle;spacingTop=-1;spacingLeft=3;spacingRight=3;rotatable=0;labelPosition=right;points=[];portConstraint=eastwest;strokeColor=inherit;" parent="dhE8wxLYe0IxyUodfGGd-43" vertex="1">
          <mxGeometry y="78" width="200" height="8" as="geometry" />
        </mxCell>
        <mxCell id="4SkyMIcwRhMA-IvSOk0w-32" value="+ Replay()" style="text;strokeColor=none;fillColor=none;align=left;verticalAlign=top;spacingLeft=4;spacingRight=4;overflow=hidden;rotatable=0;points=[[0,0.5],[1,0.5]];portConstraint=eastwest;whiteSpace=wrap;html=1;" parent="dhE8wxLYe0IxyUodfGGd-43" vertex="1">
          <mxGeometry y="86" width="200" height="26" as="geometry" />
        </mxCell>
        <mxCell id="4SkyMIcwRhMA-IvSOk0w-4" value="+ Quit()" style="text;strokeColor=none;fillColor=none;align=left;verticalAlign=top;spacingLeft=4;spacingRight=4;overflow=hidden;rotatable=0;points=[[0,0.5],[1,0.5]];portConstraint=eastwest;whiteSpace=wrap;html=1;" parent="dhE8wxLYe0IxyUodfGGd-43" vertex="1">
          <mxGeometry y="112" width="200" height="26" as="geometry" />
        </mxCell>
        <mxCell id="dhE8wxLYe0IxyUodfGGd-56" value="Extends" style="endArrow=block;endSize=16;endFill=0;html=1;rounded=0;" parent="1" source="4SkyMIcwRhMA-IvSOk0w-10" target="_DnX2QRDeC5mHLzfc5bT-18" edge="1">
          <mxGeometry width="160" relative="1" as="geometry">
            <mxPoint x="-65" y="1074" as="sourcePoint" />
            <mxPoint x="-250" y="1200" as="targetPoint" />
          </mxGeometry>
        </mxCell>
        <mxCell id="dhE8wxLYe0IxyUodfGGd-59" value="" style="endArrow=diamondThin;endFill=0;endSize=24;html=1;rounded=0;" parent="1" source="4SkyMIcwRhMA-IvSOk0w-10" target="dhE8wxLYe0IxyUodfGGd-17" edge="1">
          <mxGeometry width="160" relative="1" as="geometry">
            <mxPoint x="-205" y="932" as="sourcePoint" />
            <mxPoint x="-400" y="909.9999999999995" as="targetPoint" />
          </mxGeometry>
        </mxCell>
        <mxCell id="dhE8wxLYe0IxyUodfGGd-62" value="Character" style="swimlane;fontStyle=1;align=center;verticalAlign=top;childLayout=stackLayout;horizontal=1;startSize=26;horizontalStack=0;resizeParent=1;resizeParentMax=0;resizeLast=0;collapsible=1;marginBottom=0;whiteSpace=wrap;html=1;" parent="1" vertex="1">
          <mxGeometry x="-480" y="210" width="160" height="190" as="geometry" />
        </mxCell>
        <mxCell id="4SkyMIcwRhMA-IvSOk0w-25" value="+ OnShowHandAnimEnded" style="text;strokeColor=none;fillColor=none;align=left;verticalAlign=top;spacingLeft=4;spacingRight=4;overflow=hidden;rotatable=0;points=[[0,0.5],[1,0.5]];portConstraint=eastwest;whiteSpace=wrap;html=1;" parent="dhE8wxLYe0IxyUodfGGd-62" vertex="1">
          <mxGeometry y="26" width="160" height="26" as="geometry" />
        </mxCell>
        <mxCell id="dhE8wxLYe0IxyUodfGGd-64" value="" style="line;strokeWidth=1;fillColor=none;align=left;verticalAlign=middle;spacingTop=-1;spacingLeft=3;spacingRight=3;rotatable=0;labelPosition=right;points=[];portConstraint=eastwest;strokeColor=inherit;" parent="dhE8wxLYe0IxyUodfGGd-62" vertex="1">
          <mxGeometry y="52" width="160" height="8" as="geometry" />
        </mxCell>
        <mxCell id="j6sQ9rcBt3xvJTXsl_02-95" value="+ Idle()" style="text;strokeColor=none;fillColor=none;align=left;verticalAlign=top;spacingLeft=4;spacingRight=4;overflow=hidden;rotatable=0;points=[[0,0.5],[1,0.5]];portConstraint=eastwest;whiteSpace=wrap;html=1;" parent="dhE8wxLYe0IxyUodfGGd-62" vertex="1">
          <mxGeometry y="60" width="160" height="26" as="geometry" />
        </mxCell>
        <mxCell id="dhE8wxLYe0IxyUodfGGd-65" value="+ Happy()" style="text;strokeColor=none;fillColor=none;align=left;verticalAlign=top;spacingLeft=4;spacingRight=4;overflow=hidden;rotatable=0;points=[[0,0.5],[1,0.5]];portConstraint=eastwest;whiteSpace=wrap;html=1;" parent="dhE8wxLYe0IxyUodfGGd-62" vertex="1">
          <mxGeometry y="86" width="160" height="26" as="geometry" />
        </mxCell>
        <mxCell id="dhE8wxLYe0IxyUodfGGd-66" value="+ Sad()" style="text;strokeColor=none;fillColor=none;align=left;verticalAlign=top;spacingLeft=4;spacingRight=4;overflow=hidden;rotatable=0;points=[[0,0.5],[1,0.5]];portConstraint=eastwest;whiteSpace=wrap;html=1;" parent="dhE8wxLYe0IxyUodfGGd-62" vertex="1">
          <mxGeometry y="112" width="160" height="26" as="geometry" />
        </mxCell>
        <mxCell id="dhE8wxLYe0IxyUodfGGd-67" value="+ Thinking()" style="text;strokeColor=none;fillColor=none;align=left;verticalAlign=top;spacingLeft=4;spacingRight=4;overflow=hidden;rotatable=0;points=[[0,0.5],[1,0.5]];portConstraint=eastwest;whiteSpace=wrap;html=1;" parent="dhE8wxLYe0IxyUodfGGd-62" vertex="1">
          <mxGeometry y="138" width="160" height="26" as="geometry" />
        </mxCell>
        <mxCell id="dhE8wxLYe0IxyUodfGGd-75" value="+ ShowHand(Hands)" style="text;strokeColor=none;fillColor=none;align=left;verticalAlign=top;spacingLeft=4;spacingRight=4;overflow=hidden;rotatable=0;points=[[0,0.5],[1,0.5]];portConstraint=eastwest;whiteSpace=wrap;html=1;" parent="dhE8wxLYe0IxyUodfGGd-62" vertex="1">
          <mxGeometry y="164" width="160" height="26" as="geometry" />
        </mxCell>
        <mxCell id="dhE8wxLYe0IxyUodfGGd-74" value="" style="endArrow=diamondThin;endFill=0;endSize=24;html=1;rounded=0;" parent="1" source="dhE8wxLYe0IxyUodfGGd-62" target="dhE8wxLYe0IxyUodfGGd-17" edge="1">
          <mxGeometry width="160" relative="1" as="geometry">
            <mxPoint x="-390" y="488" as="sourcePoint" />
            <mxPoint x="-390" y="556" as="targetPoint" />
          </mxGeometry>
        </mxCell>
        <mxCell id="dhE8wxLYe0IxyUodfGGd-78" value="RandomAI" style="swimlane;fontStyle=1;align=center;verticalAlign=top;childLayout=stackLayout;horizontal=1;startSize=26;horizontalStack=0;resizeParent=1;resizeParentMax=0;resizeLast=0;collapsible=1;marginBottom=0;whiteSpace=wrap;html=1;" parent="1" vertex="1">
          <mxGeometry x="-1310" y="574" width="160" height="34" as="geometry" />
        </mxCell>
        <mxCell id="dhE8wxLYe0IxyUodfGGd-80" value="" style="line;strokeWidth=1;fillColor=none;align=left;verticalAlign=middle;spacingTop=-1;spacingLeft=3;spacingRight=3;rotatable=0;labelPosition=right;points=[];portConstraint=eastwest;strokeColor=inherit;" parent="dhE8wxLYe0IxyUodfGGd-78" vertex="1">
          <mxGeometry y="26" width="160" height="8" as="geometry" />
        </mxCell>
        <mxCell id="4SkyMIcwRhMA-IvSOk0w-9" value="" style="endArrow=diamondThin;endFill=0;endSize=24;html=1;rounded=0;" parent="1" source="dhE8wxLYe0IxyUodfGGd-22" target="dhE8wxLYe0IxyUodfGGd-17" edge="1">
          <mxGeometry width="160" relative="1" as="geometry">
            <mxPoint x="-120" y="746" as="sourcePoint" />
            <mxPoint x="-292" y="752" as="targetPoint" />
          </mxGeometry>
        </mxCell>
        <mxCell id="4SkyMIcwRhMA-IvSOk0w-10" value="JankenUI" style="shape=umlFrame;whiteSpace=wrap;html=1;pointerEvents=0;width=65;height=26;" parent="1" vertex="1">
          <mxGeometry x="-785" y="936" width="770" height="280" as="geometry" />
        </mxCell>
        <mxCell id="4SkyMIcwRhMA-IvSOk0w-12" value="" style="endArrow=block;dashed=1;endFill=0;endSize=12;html=1;rounded=0;" parent="1" source="dhE8wxLYe0IxyUodfGGd-78" target="pgCef0U5E73DQMShRHS5-14" edge="1">
          <mxGeometry width="160" relative="1" as="geometry">
            <mxPoint x="-420" y="666" as="sourcePoint" />
            <mxPoint x="-760" y="552.5" as="targetPoint" />
          </mxGeometry>
        </mxCell>
        <mxCell id="4SkyMIcwRhMA-IvSOk0w-14" value="" style="endArrow=diamondThin;endFill=0;endSize=24;html=1;rounded=0;" parent="1" source="pgCef0U5E73DQMShRHS5-7" target="dhE8wxLYe0IxyUodfGGd-17" edge="1">
          <mxGeometry width="160" relative="1" as="geometry">
            <mxPoint x="-575" y="595.2056074766356" as="sourcePoint" />
            <mxPoint x="-660" y="742" as="targetPoint" />
          </mxGeometry>
        </mxCell>
        <mxCell id="4SkyMIcwRhMA-IvSOk0w-17" value="&amp;lt;&amp;lt;enumeration&amp;gt;&amp;gt;&lt;br&gt;&lt;b&gt;JankenHand&lt;/b&gt;" style="swimlane;fontStyle=0;align=center;verticalAlign=top;childLayout=stackLayout;horizontal=1;startSize=40;horizontalStack=0;resizeParent=1;resizeParentMax=0;resizeLast=0;collapsible=0;marginBottom=0;html=1;whiteSpace=wrap;" parent="1" vertex="1">
          <mxGeometry x="-1010" y="928" width="140" height="130" as="geometry" />
        </mxCell>
        <mxCell id="4SkyMIcwRhMA-IvSOk0w-18" value="Rock" style="text;html=1;strokeColor=none;fillColor=none;align=left;verticalAlign=middle;spacingLeft=4;spacingRight=4;overflow=hidden;rotatable=0;points=[[0,0.5],[1,0.5]];portConstraint=eastwest;whiteSpace=wrap;" parent="4SkyMIcwRhMA-IvSOk0w-17" vertex="1">
          <mxGeometry y="40" width="140" height="30" as="geometry" />
        </mxCell>
        <mxCell id="4SkyMIcwRhMA-IvSOk0w-19" value="Scissors" style="text;html=1;strokeColor=none;fillColor=none;align=left;verticalAlign=middle;spacingLeft=4;spacingRight=4;overflow=hidden;rotatable=0;points=[[0,0.5],[1,0.5]];portConstraint=eastwest;whiteSpace=wrap;" parent="4SkyMIcwRhMA-IvSOk0w-17" vertex="1">
          <mxGeometry y="70" width="140" height="30" as="geometry" />
        </mxCell>
        <mxCell id="4SkyMIcwRhMA-IvSOk0w-20" value="Paper" style="text;html=1;strokeColor=none;fillColor=none;align=left;verticalAlign=middle;spacingLeft=4;spacingRight=4;overflow=hidden;rotatable=0;points=[[0,0.5],[1,0.5]];portConstraint=eastwest;whiteSpace=wrap;" parent="4SkyMIcwRhMA-IvSOk0w-17" vertex="1">
          <mxGeometry y="100" width="140" height="30" as="geometry" />
        </mxCell>
        <mxCell id="4SkyMIcwRhMA-IvSOk0w-30" value="状態を変更" style="html=1;verticalAlign=bottom;endArrow=open;curved=0;rounded=0;endFill=0;endSize=12;" parent="1" source="dhE8wxLYe0IxyUodfGGd-17" target="DAhngsFh_Zj9q6nhMHTs-5" edge="1">
          <mxGeometry width="80" relative="1" as="geometry">
            <mxPoint x="290" y="350" as="sourcePoint" />
            <mxPoint x="290" y="272" as="targetPoint" />
          </mxGeometry>
        </mxCell>
        <mxCell id="4SkyMIcwRhMA-IvSOk0w-37" value="GameSelectUI" style="swimlane;fontStyle=1;align=center;verticalAlign=top;childLayout=stackLayout;horizontal=1;startSize=26;horizontalStack=0;resizeParent=1;resizeParentMax=0;resizeLast=0;collapsible=1;marginBottom=0;whiteSpace=wrap;html=1;" parent="1" vertex="1">
          <mxGeometry x="340" y="561" width="170" height="86" as="geometry" />
        </mxCell>
        <mxCell id="uvfrdRcjlmfVS66542J3-3" value="- gameUI : GameUI[]" style="text;strokeColor=none;fillColor=none;align=left;verticalAlign=top;spacingLeft=4;spacingRight=4;overflow=hidden;rotatable=0;points=[[0,0.5],[1,0.5]];portConstraint=eastwest;whiteSpace=wrap;html=1;" parent="4SkyMIcwRhMA-IvSOk0w-37" vertex="1">
          <mxGeometry y="26" width="170" height="26" as="geometry" />
        </mxCell>
        <mxCell id="4SkyMIcwRhMA-IvSOk0w-39" value="" style="line;strokeWidth=1;fillColor=none;align=left;verticalAlign=middle;spacingTop=-1;spacingLeft=3;spacingRight=3;rotatable=0;labelPosition=right;points=[];portConstraint=eastwest;strokeColor=inherit;" parent="4SkyMIcwRhMA-IvSOk0w-37" vertex="1">
          <mxGeometry y="52" width="170" height="8" as="geometry" />
        </mxCell>
        <mxCell id="4SkyMIcwRhMA-IvSOk0w-40" value="+ BackToTitle()" style="text;strokeColor=none;fillColor=none;align=left;verticalAlign=top;spacingLeft=4;spacingRight=4;overflow=hidden;rotatable=0;points=[[0,0.5],[1,0.5]];portConstraint=eastwest;whiteSpace=wrap;html=1;" parent="4SkyMIcwRhMA-IvSOk0w-37" vertex="1">
          <mxGeometry y="60" width="170" height="26" as="geometry" />
        </mxCell>
        <mxCell id="4SkyMIcwRhMA-IvSOk0w-49" value="1 ... n" style="endArrow=open;html=1;endSize=12;startArrow=diamondThin;startSize=14;startFill=0;align=left;verticalAlign=bottom;rounded=0;" parent="1" source="4SkyMIcwRhMA-IvSOk0w-37" target="_DnX2QRDeC5mHLzfc5bT-1" edge="1">
          <mxGeometry x="-1" y="3" relative="1" as="geometry">
            <mxPoint x="960" y="620" as="sourcePoint" />
            <mxPoint x="1120" y="620" as="targetPoint" />
          </mxGeometry>
        </mxCell>
        <mxCell id="uvfrdRcjlmfVS66542J3-2" value="ゲームの進行状況に&lt;br&gt;応じてアンロック" style="edgeLabel;html=1;align=center;verticalAlign=middle;resizable=0;points=[];" parent="4SkyMIcwRhMA-IvSOk0w-49" vertex="1" connectable="0">
          <mxGeometry x="0.1" relative="1" as="geometry">
            <mxPoint x="-5" as="offset" />
          </mxGeometry>
        </mxCell>
        <mxCell id="4SkyMIcwRhMA-IvSOk0w-51" value="GameSelect" style="shape=umlFrame;whiteSpace=wrap;html=1;pointerEvents=0;width=85;height=30;" parent="1" vertex="1">
          <mxGeometry x="320" y="390" width="590" height="510" as="geometry" />
        </mxCell>
        <mxCell id="4SkyMIcwRhMA-IvSOk0w-52" value="JankenGame" style="shape=umlFrame;whiteSpace=wrap;html=1;pointerEvents=0;width=120;height=50;" parent="1" vertex="1">
          <mxGeometry x="-1450" y="190" width="1480" height="1060" as="geometry" />
        </mxCell>
        <mxCell id="4SkyMIcwRhMA-IvSOk0w-54" value="" style="html=1;verticalAlign=bottom;endArrow=open;curved=0;rounded=0;endFill=0;endSize=12;" parent="1" source="_DnX2QRDeC5mHLzfc5bT-1" target="_DnX2QRDeC5mHLzfc5bT-5" edge="1">
          <mxGeometry width="80" relative="1" as="geometry">
            <mxPoint x="500" y="493" as="sourcePoint" />
            <mxPoint x="524" y="282" as="targetPoint" />
          </mxGeometry>
        </mxCell>
        <mxCell id="4SkyMIcwRhMA-IvSOk0w-55" value="Title" style="shape=umlFrame;whiteSpace=wrap;html=1;pointerEvents=0;" parent="1" vertex="1">
          <mxGeometry x="490" y="106" width="300" height="200" as="geometry" />
        </mxCell>
        <mxCell id="yCt9xL6cB3qSo9_0wxPj-2" value="" style="html=1;verticalAlign=bottom;endArrow=open;rounded=0;endFill=0;endSize=12;edgeStyle=orthogonalEdgeStyle;exitX=0.5;exitY=0;exitDx=0;exitDy=0;" parent="1" source="_DnX2QRDeC5mHLzfc5bT-1" target="DAhngsFh_Zj9q6nhMHTs-5" edge="1">
          <mxGeometry width="80" relative="1" as="geometry">
            <mxPoint x="272" y="483" as="sourcePoint" />
            <mxPoint x="286" y="272" as="targetPoint" />
            <Array as="points">
              <mxPoint x="790" y="350" />
              <mxPoint x="280" y="350" />
            </Array>
          </mxGeometry>
        </mxCell>
        <mxCell id="NhQtk5reYERQCzmd6o7h-2" value="PreGame" style="rounded=1;whiteSpace=wrap;html=1;arcSize=40;fontColor=#000000;fillColor=#ffffc0;strokeColor=#ff0000;" parent="1" vertex="1">
          <mxGeometry x="-473" y="1380" width="120" height="40" as="geometry" />
        </mxCell>
        <mxCell id="NhQtk5reYERQCzmd6o7h-3" value="" style="edgeStyle=orthogonalEdgeStyle;html=1;verticalAlign=bottom;endArrow=open;endSize=8;strokeColor=#ff0000;rounded=0;" parent="1" source="NhQtk5reYERQCzmd6o7h-2" target="NhQtk5reYERQCzmd6o7h-4" edge="1">
          <mxGeometry relative="1" as="geometry">
            <mxPoint x="-413" y="1480" as="targetPoint" />
          </mxGeometry>
        </mxCell>
        <mxCell id="PY_Y1VQJbNHsJaboNbui-5" value="OnGameStart()" style="edgeLabel;html=1;align=center;verticalAlign=middle;resizable=0;points=[];" parent="NhQtk5reYERQCzmd6o7h-3" vertex="1" connectable="0">
          <mxGeometry x="-0.2" y="-1" relative="1" as="geometry">
            <mxPoint as="offset" />
          </mxGeometry>
        </mxCell>
        <mxCell id="NhQtk5reYERQCzmd6o7h-4" value="HandSelect" style="rounded=1;whiteSpace=wrap;html=1;arcSize=40;fontColor=#000000;fillColor=#ffffc0;strokeColor=#ff0000;" parent="1" vertex="1">
          <mxGeometry x="-473" y="1470" width="120" height="40" as="geometry" />
        </mxCell>
        <mxCell id="NhQtk5reYERQCzmd6o7h-5" value="ShowingHands" style="rounded=1;whiteSpace=wrap;html=1;arcSize=40;fontColor=#000000;fillColor=#ffffc0;strokeColor=#ff0000;" parent="1" vertex="1">
          <mxGeometry x="-473" y="1570" width="120" height="40" as="geometry" />
        </mxCell>
        <mxCell id="NhQtk5reYERQCzmd6o7h-6" value="Result" style="rounded=1;whiteSpace=wrap;html=1;arcSize=40;fontColor=#000000;fillColor=#ffffc0;strokeColor=#ff0000;" parent="1" vertex="1">
          <mxGeometry x="-473" y="1670" width="120" height="40" as="geometry" />
        </mxCell>
        <mxCell id="NhQtk5reYERQCzmd6o7h-7" value="" style="edgeStyle=orthogonalEdgeStyle;html=1;verticalAlign=bottom;endArrow=open;endSize=8;strokeColor=#ff0000;rounded=0;" parent="1" source="NhQtk5reYERQCzmd6o7h-4" target="NhQtk5reYERQCzmd6o7h-5" edge="1">
          <mxGeometry relative="1" as="geometry">
            <mxPoint x="-403" y="1480" as="targetPoint" />
            <mxPoint x="-403" y="1430" as="sourcePoint" />
          </mxGeometry>
        </mxCell>
        <mxCell id="-3SWsVw3ssGkLwqjxBdS-4" value="OnHandSelected()" style="edgeLabel;html=1;align=center;verticalAlign=middle;resizable=0;points=[];" parent="NhQtk5reYERQCzmd6o7h-7" vertex="1" connectable="0">
          <mxGeometry x="-0.171" relative="1" as="geometry">
            <mxPoint as="offset" />
          </mxGeometry>
        </mxCell>
        <mxCell id="NhQtk5reYERQCzmd6o7h-8" value="" style="edgeStyle=orthogonalEdgeStyle;html=1;verticalAlign=bottom;endArrow=open;endSize=8;strokeColor=#ff0000;rounded=0;" parent="1" source="NhQtk5reYERQCzmd6o7h-5" target="NhQtk5reYERQCzmd6o7h-6" edge="1">
          <mxGeometry relative="1" as="geometry">
            <mxPoint x="-403" y="1580" as="targetPoint" />
            <mxPoint x="-240" y="1600" as="sourcePoint" />
          </mxGeometry>
        </mxCell>
        <mxCell id="PY_Y1VQJbNHsJaboNbui-6" value="OnResult()" style="edgeLabel;html=1;align=center;verticalAlign=middle;resizable=0;points=[];" parent="NhQtk5reYERQCzmd6o7h-8" vertex="1" connectable="0">
          <mxGeometry x="-0.2" y="-2" relative="1" as="geometry">
            <mxPoint as="offset" />
          </mxGeometry>
        </mxCell>
        <mxCell id="NhQtk5reYERQCzmd6o7h-9" value="" style="html=1;verticalAlign=bottom;endArrow=open;endSize=8;strokeColor=#ff0000;rounded=0;" parent="1" edge="1">
          <mxGeometry relative="1" as="geometry">
            <mxPoint x="-550" y="1580" as="targetPoint" />
            <mxPoint x="-473" y="1580" as="sourcePoint" />
          </mxGeometry>
        </mxCell>
        <mxCell id="PY_Y1VQJbNHsJaboNbui-4" value="wasDraw" style="edgeLabel;html=1;align=center;verticalAlign=middle;resizable=0;points=[];" parent="NhQtk5reYERQCzmd6o7h-9" vertex="1" connectable="0">
          <mxGeometry x="-0.013" y="-2" relative="1" as="geometry">
            <mxPoint y="-8" as="offset" />
          </mxGeometry>
        </mxCell>
        <mxCell id="j6sQ9rcBt3xvJTXsl_02-2" value="ButtonUtil (static)" style="swimlane;fontStyle=1;align=center;verticalAlign=top;childLayout=stackLayout;horizontal=1;startSize=26;horizontalStack=0;resizeParent=1;resizeParentMax=0;resizeLast=0;collapsible=1;marginBottom=0;whiteSpace=wrap;html=1;" parent="1" vertex="1">
          <mxGeometry x="440" y="1340" width="160" height="86" as="geometry" />
        </mxCell>
        <mxCell id="j6sQ9rcBt3xvJTXsl_02-4" value="" style="line;strokeWidth=1;fillColor=none;align=left;verticalAlign=middle;spacingTop=-1;spacingLeft=3;spacingRight=3;rotatable=0;labelPosition=right;points=[];portConstraint=eastwest;strokeColor=inherit;" parent="j6sQ9rcBt3xvJTXsl_02-2" vertex="1">
          <mxGeometry y="26" width="160" height="8" as="geometry" />
        </mxCell>
        <mxCell id="j6sQ9rcBt3xvJTXsl_02-5" value="+ EnableButton(buttons[])" style="text;strokeColor=none;fillColor=none;align=left;verticalAlign=top;spacingLeft=4;spacingRight=4;overflow=hidden;rotatable=0;points=[[0,0.5],[1,0.5]];portConstraint=eastwest;whiteSpace=wrap;html=1;" parent="j6sQ9rcBt3xvJTXsl_02-2" vertex="1">
          <mxGeometry y="34" width="160" height="26" as="geometry" />
        </mxCell>
        <mxCell id="j6sQ9rcBt3xvJTXsl_02-6" value="+ DisableButton(buttons[])" style="text;strokeColor=none;fillColor=none;align=left;verticalAlign=top;spacingLeft=4;spacingRight=4;overflow=hidden;rotatable=0;points=[[0,0.5],[1,0.5]];portConstraint=eastwest;whiteSpace=wrap;html=1;" parent="j6sQ9rcBt3xvJTXsl_02-2" vertex="1">
          <mxGeometry y="60" width="160" height="26" as="geometry" />
        </mxCell>
        <mxCell id="j6sQ9rcBt3xvJTXsl_02-18" value="開閉時にボタンを有効化・無効化" style="html=1;verticalAlign=bottom;endArrow=open;curved=0;rounded=0;endFill=0;endSize=12;" parent="1" source="_DnX2QRDeC5mHLzfc5bT-18" target="j6sQ9rcBt3xvJTXsl_02-2" edge="1">
          <mxGeometry width="80" relative="1" as="geometry">
            <mxPoint x="290" y="660" as="sourcePoint" />
            <mxPoint x="140" y="660" as="targetPoint" />
          </mxGeometry>
        </mxCell>
        <mxCell id="j6sQ9rcBt3xvJTXsl_02-46" value="&amp;lt;&amp;lt;enumeration&amp;gt;&amp;gt;&lt;br&gt;&lt;b&gt;UIState&lt;/b&gt;" style="swimlane;fontStyle=0;align=center;verticalAlign=top;childLayout=stackLayout;horizontal=1;startSize=40;horizontalStack=0;resizeParent=1;resizeParentMax=0;resizeLast=0;collapsible=0;marginBottom=0;html=1;whiteSpace=wrap;" parent="1" vertex="1">
          <mxGeometry x="690" y="1044" width="140" height="160" as="geometry" />
        </mxCell>
        <mxCell id="j6sQ9rcBt3xvJTXsl_02-47" value="InActive" style="text;html=1;strokeColor=none;fillColor=none;align=left;verticalAlign=middle;spacingLeft=4;spacingRight=4;overflow=hidden;rotatable=0;points=[[0,0.5],[1,0.5]];portConstraint=eastwest;whiteSpace=wrap;" parent="j6sQ9rcBt3xvJTXsl_02-46" vertex="1">
          <mxGeometry y="40" width="140" height="30" as="geometry" />
        </mxCell>
        <mxCell id="j6sQ9rcBt3xvJTXsl_02-48" value="Opening" style="text;html=1;strokeColor=none;fillColor=none;align=left;verticalAlign=middle;spacingLeft=4;spacingRight=4;overflow=hidden;rotatable=0;points=[[0,0.5],[1,0.5]];portConstraint=eastwest;whiteSpace=wrap;" parent="j6sQ9rcBt3xvJTXsl_02-46" vertex="1">
          <mxGeometry y="70" width="140" height="30" as="geometry" />
        </mxCell>
        <mxCell id="j6sQ9rcBt3xvJTXsl_02-49" value="Active" style="text;html=1;strokeColor=none;fillColor=none;align=left;verticalAlign=middle;spacingLeft=4;spacingRight=4;overflow=hidden;rotatable=0;points=[[0,0.5],[1,0.5]];portConstraint=eastwest;whiteSpace=wrap;" parent="j6sQ9rcBt3xvJTXsl_02-46" vertex="1">
          <mxGeometry y="100" width="140" height="30" as="geometry" />
        </mxCell>
        <mxCell id="j6sQ9rcBt3xvJTXsl_02-94" value="Closing" style="text;html=1;strokeColor=none;fillColor=none;align=left;verticalAlign=middle;spacingLeft=4;spacingRight=4;overflow=hidden;rotatable=0;points=[[0,0.5],[1,0.5]];portConstraint=eastwest;whiteSpace=wrap;" parent="j6sQ9rcBt3xvJTXsl_02-46" vertex="1">
          <mxGeometry y="130" width="140" height="30" as="geometry" />
        </mxCell>
        <mxCell id="j6sQ9rcBt3xvJTXsl_02-50" value="" style="endArrow=diamondThin;endFill=0;endSize=24;html=1;rounded=0;" parent="1" source="j6sQ9rcBt3xvJTXsl_02-46" target="_DnX2QRDeC5mHLzfc5bT-18" edge="1">
          <mxGeometry width="160" relative="1" as="geometry">
            <mxPoint x="505" y="780" as="sourcePoint" />
            <mxPoint x="505" y="722" as="targetPoint" />
          </mxGeometry>
        </mxCell>
        <mxCell id="j6sQ9rcBt3xvJTXsl_02-73" value="Opening" style="rounded=1;whiteSpace=wrap;html=1;arcSize=40;fontColor=#000000;fillColor=#ffffc0;strokeColor=#ff0000;" parent="1" vertex="1">
          <mxGeometry x="1086" y="1013" width="120" height="40" as="geometry" />
        </mxCell>
        <mxCell id="j6sQ9rcBt3xvJTXsl_02-74" value="InActive" style="rounded=1;whiteSpace=wrap;html=1;arcSize=40;fontColor=#000000;fillColor=#ffffc0;strokeColor=#ff0000;" parent="1" vertex="1">
          <mxGeometry x="870" y="1013" width="120" height="40" as="geometry" />
        </mxCell>
        <mxCell id="j6sQ9rcBt3xvJTXsl_02-75" value="Closing" style="rounded=1;whiteSpace=wrap;html=1;arcSize=40;fontColor=#000000;fillColor=#ffffc0;strokeColor=#ff0000;" parent="1" vertex="1">
          <mxGeometry x="870" y="1129" width="120" height="40" as="geometry" />
        </mxCell>
        <mxCell id="j6sQ9rcBt3xvJTXsl_02-80" value="" style="html=1;verticalAlign=bottom;endArrow=open;endSize=8;strokeColor=#ff0000;rounded=0;startArrow=none;startFill=0;" parent="1" source="j6sQ9rcBt3xvJTXsl_02-74" target="j6sQ9rcBt3xvJTXsl_02-73" edge="1">
          <mxGeometry relative="1" as="geometry">
            <mxPoint x="920" y="1133" as="targetPoint" />
            <mxPoint x="770" y="1133" as="sourcePoint" />
          </mxGeometry>
        </mxCell>
        <mxCell id="j6sQ9rcBt3xvJTXsl_02-81" value="Open" style="edgeLabel;html=1;align=center;verticalAlign=middle;resizable=0;points=[];" parent="j6sQ9rcBt3xvJTXsl_02-80" vertex="1" connectable="0">
          <mxGeometry x="-0.0087" y="-1" relative="1" as="geometry">
            <mxPoint as="offset" />
          </mxGeometry>
        </mxCell>
        <mxCell id="j6sQ9rcBt3xvJTXsl_02-84" value="Active" style="rounded=1;whiteSpace=wrap;html=1;arcSize=40;fontColor=#000000;fillColor=#ffffc0;strokeColor=#ff0000;" parent="1" vertex="1">
          <mxGeometry x="1086" y="1129" width="120" height="40" as="geometry" />
        </mxCell>
        <mxCell id="j6sQ9rcBt3xvJTXsl_02-85" value="" style="html=1;verticalAlign=bottom;endArrow=open;endSize=8;strokeColor=#ff0000;rounded=0;startArrow=none;startFill=0;" parent="1" source="j6sQ9rcBt3xvJTXsl_02-73" target="j6sQ9rcBt3xvJTXsl_02-84" edge="1">
          <mxGeometry relative="1" as="geometry">
            <mxPoint x="1096" y="1043" as="targetPoint" />
            <mxPoint x="1000" y="1043" as="sourcePoint" />
          </mxGeometry>
        </mxCell>
        <mxCell id="j6sQ9rcBt3xvJTXsl_02-86" value="OnAnimEnded" style="edgeLabel;html=1;align=center;verticalAlign=middle;resizable=0;points=[];" parent="j6sQ9rcBt3xvJTXsl_02-85" vertex="1" connectable="0">
          <mxGeometry x="-0.0087" y="-1" relative="1" as="geometry">
            <mxPoint as="offset" />
          </mxGeometry>
        </mxCell>
        <mxCell id="j6sQ9rcBt3xvJTXsl_02-87" value="" style="html=1;verticalAlign=bottom;endArrow=open;endSize=8;strokeColor=#ff0000;rounded=0;startArrow=none;startFill=0;" parent="1" source="j6sQ9rcBt3xvJTXsl_02-84" target="j6sQ9rcBt3xvJTXsl_02-75" edge="1">
          <mxGeometry relative="1" as="geometry">
            <mxPoint x="1156" y="1139" as="targetPoint" />
            <mxPoint x="1246" y="1129" as="sourcePoint" />
          </mxGeometry>
        </mxCell>
        <mxCell id="j6sQ9rcBt3xvJTXsl_02-88" value="Close" style="edgeLabel;html=1;align=center;verticalAlign=middle;resizable=0;points=[];" parent="j6sQ9rcBt3xvJTXsl_02-87" vertex="1" connectable="0">
          <mxGeometry x="-0.0087" y="-1" relative="1" as="geometry">
            <mxPoint as="offset" />
          </mxGeometry>
        </mxCell>
        <mxCell id="j6sQ9rcBt3xvJTXsl_02-92" value="" style="html=1;verticalAlign=bottom;endArrow=open;endSize=8;strokeColor=#ff0000;rounded=0;startArrow=none;startFill=0;" parent="1" source="j6sQ9rcBt3xvJTXsl_02-75" target="j6sQ9rcBt3xvJTXsl_02-74" edge="1">
          <mxGeometry relative="1" as="geometry">
            <mxPoint x="696" y="1169" as="targetPoint" />
            <mxPoint x="696" y="1093" as="sourcePoint" />
          </mxGeometry>
        </mxCell>
        <mxCell id="j6sQ9rcBt3xvJTXsl_02-93" value="OnAnimEnded" style="edgeLabel;html=1;align=center;verticalAlign=middle;resizable=0;points=[];" parent="j6sQ9rcBt3xvJTXsl_02-92" vertex="1" connectable="0">
          <mxGeometry x="-0.0087" y="-1" relative="1" as="geometry">
            <mxPoint as="offset" />
          </mxGeometry>
        </mxCell>
        <mxCell id="hmdHcrWq8wFEWgZgAUYJ-3" value="ポップアップについて考察&lt;br&gt;画面上にUIを表示するとき、そのUIに隠される全てのUIを&lt;br&gt;いちいちクリック不可状態に設定しているとは考えにくい&lt;br&gt;単にグレーの背景で画面全体をカバーしてクリック&lt;br&gt;できないようにしているのではないか？" style="text;html=1;align=center;verticalAlign=middle;resizable=0;points=[];autosize=1;strokeColor=none;fillColor=none;" parent="1" vertex="1">
          <mxGeometry x="625" y="1266" width="340" height="90" as="geometry" />
        </mxCell>
        <mxCell id="pgCef0U5E73DQMShRHS5-1" value="" style="edgeStyle=orthogonalEdgeStyle;html=1;verticalAlign=bottom;endArrow=open;endSize=8;strokeColor=#ff0000;rounded=0;" parent="1" source="NhQtk5reYERQCzmd6o7h-6" target="pgCef0U5E73DQMShRHS5-5" edge="1">
          <mxGeometry relative="1" as="geometry">
            <mxPoint x="-313" y="1640" as="targetPoint" />
            <mxPoint x="-313" y="1740" as="sourcePoint" />
            <Array as="points">
              <mxPoint x="-270" y="1690" />
              <mxPoint x="-270" y="1310" />
            </Array>
          </mxGeometry>
        </mxCell>
        <mxCell id="PY_Y1VQJbNHsJaboNbui-7" value="Replay()" style="edgeLabel;html=1;align=center;verticalAlign=middle;resizable=0;points=[];" parent="pgCef0U5E73DQMShRHS5-1" vertex="1" connectable="0">
          <mxGeometry x="-0.0219" y="1" relative="1" as="geometry">
            <mxPoint x="1" y="16" as="offset" />
          </mxGeometry>
        </mxCell>
        <mxCell id="pgCef0U5E73DQMShRHS5-2" value="" style="html=1;verticalAlign=bottom;endArrow=open;endSize=8;strokeColor=#ff0000;rounded=0;" parent="1" source="NhQtk5reYERQCzmd6o7h-6" target="pgCef0U5E73DQMShRHS5-4" edge="1">
          <mxGeometry relative="1" as="geometry">
            <mxPoint x="-490" y="1840" as="targetPoint" />
            <mxPoint x="-403" y="1620" as="sourcePoint" />
          </mxGeometry>
        </mxCell>
        <mxCell id="PY_Y1VQJbNHsJaboNbui-8" value="QuitGame()" style="edgeLabel;html=1;align=center;verticalAlign=middle;resizable=0;points=[];" parent="pgCef0U5E73DQMShRHS5-2" vertex="1" connectable="0">
          <mxGeometry x="-0.1077" y="2" relative="1" as="geometry">
            <mxPoint as="offset" />
          </mxGeometry>
        </mxCell>
        <mxCell id="pgCef0U5E73DQMShRHS5-4" value="" style="ellipse;html=1;shape=endState;fillColor=#000000;strokeColor=#ff0000;" parent="1" vertex="1">
          <mxGeometry x="-428" y="1775" width="30" height="30" as="geometry" />
        </mxCell>
        <mxCell id="pgCef0U5E73DQMShRHS5-5" value="" style="ellipse;html=1;shape=startState;fillColor=#000000;strokeColor=#ff0000;" parent="1" vertex="1">
          <mxGeometry x="-428" y="1296" width="30" height="30" as="geometry" />
        </mxCell>
        <mxCell id="pgCef0U5E73DQMShRHS5-6" value="" style="html=1;verticalAlign=bottom;endArrow=open;endSize=8;strokeColor=#ff0000;rounded=0;" parent="1" source="pgCef0U5E73DQMShRHS5-5" target="NhQtk5reYERQCzmd6o7h-2" edge="1">
          <mxGeometry relative="1" as="geometry">
            <mxPoint x="-413" y="1370" as="targetPoint" />
          </mxGeometry>
        </mxCell>
        <mxCell id="PY_Y1VQJbNHsJaboNbui-9" value="Init()" style="edgeLabel;html=1;align=center;verticalAlign=middle;resizable=0;points=[];" parent="pgCef0U5E73DQMShRHS5-6" vertex="1" connectable="0">
          <mxGeometry x="-0.0741" y="1" relative="1" as="geometry">
            <mxPoint as="offset" />
          </mxGeometry>
        </mxCell>
        <mxCell id="pgCef0U5E73DQMShRHS5-7" value="JankenSystem" style="swimlane;fontStyle=1;align=center;verticalAlign=top;childLayout=stackLayout;horizontal=1;startSize=26;horizontalStack=0;resizeParent=1;resizeParentMax=0;resizeLast=0;collapsible=1;marginBottom=0;whiteSpace=wrap;html=1;" parent="1" vertex="1">
          <mxGeometry x="-840" y="535" width="210" height="138" as="geometry" />
        </mxCell>
        <mxCell id="pgCef0U5E73DQMShRHS5-8" value="- participants : IJankenPlayer[]" style="text;strokeColor=none;fillColor=none;align=left;verticalAlign=top;spacingLeft=4;spacingRight=4;overflow=hidden;rotatable=0;points=[[0,0.5],[1,0.5]];portConstraint=eastwest;whiteSpace=wrap;html=1;" parent="pgCef0U5E73DQMShRHS5-7" vertex="1">
          <mxGeometry y="26" width="210" height="26" as="geometry" />
        </mxCell>
        <mxCell id="pgCef0U5E73DQMShRHS5-9" value="" style="line;strokeWidth=1;fillColor=none;align=left;verticalAlign=middle;spacingTop=-1;spacingLeft=3;spacingRight=3;rotatable=0;labelPosition=right;points=[];portConstraint=eastwest;strokeColor=inherit;" parent="pgCef0U5E73DQMShRHS5-7" vertex="1">
          <mxGeometry y="52" width="210" height="8" as="geometry" />
        </mxCell>
        <mxCell id="-3SWsVw3ssGkLwqjxBdS-3" value="+ AddPlayer(IJankenPlayer)" style="text;strokeColor=none;fillColor=none;align=left;verticalAlign=top;spacingLeft=4;spacingRight=4;overflow=hidden;rotatable=0;points=[[0,0.5],[1,0.5]];portConstraint=eastwest;whiteSpace=wrap;html=1;" parent="pgCef0U5E73DQMShRHS5-7" vertex="1">
          <mxGeometry y="60" width="210" height="26" as="geometry" />
        </mxCell>
        <mxCell id="pgCef0U5E73DQMShRHS5-11" value="+ ResetPlayer()" style="text;strokeColor=none;fillColor=none;align=left;verticalAlign=top;spacingLeft=4;spacingRight=4;overflow=hidden;rotatable=0;points=[[0,0.5],[1,0.5]];portConstraint=eastwest;whiteSpace=wrap;html=1;" parent="pgCef0U5E73DQMShRHS5-7" vertex="1">
          <mxGeometry y="86" width="210" height="26" as="geometry" />
        </mxCell>
        <mxCell id="-3SWsVw3ssGkLwqjxBdS-2" value="# Judge() : JankenInfo" style="text;strokeColor=none;fillColor=none;align=left;verticalAlign=top;spacingLeft=4;spacingRight=4;overflow=hidden;rotatable=0;points=[[0,0.5],[1,0.5]];portConstraint=eastwest;whiteSpace=wrap;html=1;" parent="pgCef0U5E73DQMShRHS5-7" vertex="1">
          <mxGeometry y="112" width="210" height="26" as="geometry" />
        </mxCell>
        <mxCell id="pgCef0U5E73DQMShRHS5-14" value="&lt;p style=&quot;margin:0px;margin-top:4px;text-align:center;&quot;&gt;&lt;i&gt;&amp;lt;&amp;lt;Interface&amp;gt;&amp;gt;&lt;/i&gt;&lt;br&gt;&lt;b&gt;IJankenPlayer&lt;/b&gt;&lt;/p&gt;&lt;hr size=&quot;1&quot;&gt;&lt;p style=&quot;margin:0px;margin-left:4px;&quot;&gt;&lt;br&gt;&lt;/p&gt;&lt;hr size=&quot;1&quot;&gt;&lt;p style=&quot;margin:0px;margin-left:4px;&quot;&gt;+ GetHand() : JankenHand&lt;br&gt;&lt;/p&gt;" style="verticalAlign=top;align=left;overflow=fill;fontSize=12;fontFamily=Helvetica;html=1;whiteSpace=wrap;" parent="1" vertex="1">
          <mxGeometry x="-1110" y="556" width="240" height="97" as="geometry" />
        </mxCell>
        <mxCell id="-3SWsVw3ssGkLwqjxBdS-1" value="" style="html=1;verticalAlign=bottom;endArrow=open;curved=0;rounded=0;endFill=0;endSize=12;" parent="1" source="pgCef0U5E73DQMShRHS5-7" target="pgCef0U5E73DQMShRHS5-14" edge="1">
          <mxGeometry width="80" relative="1" as="geometry">
            <mxPoint x="-912" y="411.5" as="sourcePoint" />
            <mxPoint x="-1020" y="516.5" as="targetPoint" />
          </mxGeometry>
        </mxCell>
        <mxCell id="_ihpI4agDZquPOQ2BUvL-1" value="JankenInfo (struct)" style="swimlane;fontStyle=1;align=center;verticalAlign=top;childLayout=stackLayout;horizontal=1;startSize=26;horizontalStack=0;resizeParent=1;resizeParentMax=0;resizeLast=0;collapsible=1;marginBottom=0;whiteSpace=wrap;html=1;" parent="1" vertex="1">
          <mxGeometry x="-895" y="712" width="320" height="112" as="geometry" />
        </mxCell>
        <mxCell id="_ihpI4agDZquPOQ2BUvL-13" value="+ participants : Dictionary&amp;lt;IJankenPlayer, JankenHands&amp;gt;" style="text;strokeColor=none;fillColor=none;align=left;verticalAlign=top;spacingLeft=4;spacingRight=4;overflow=hidden;rotatable=0;points=[[0,0.5],[1,0.5]];portConstraint=eastwest;whiteSpace=wrap;html=1;" parent="_ihpI4agDZquPOQ2BUvL-1" vertex="1">
          <mxGeometry y="26" width="320" height="26" as="geometry" />
        </mxCell>
        <mxCell id="_ihpI4agDZquPOQ2BUvL-11" value="+ result : MatchResult" style="text;strokeColor=none;fillColor=none;align=left;verticalAlign=top;spacingLeft=4;spacingRight=4;overflow=hidden;rotatable=0;points=[[0,0.5],[1,0.5]];portConstraint=eastwest;whiteSpace=wrap;html=1;" parent="_ihpI4agDZquPOQ2BUvL-1" vertex="1">
          <mxGeometry y="52" width="320" height="26" as="geometry" />
        </mxCell>
        <mxCell id="_ihpI4agDZquPOQ2BUvL-3" value="" style="line;strokeWidth=1;fillColor=none;align=left;verticalAlign=middle;spacingTop=-1;spacingLeft=3;spacingRight=3;rotatable=0;labelPosition=right;points=[];portConstraint=eastwest;strokeColor=inherit;" parent="_ihpI4agDZquPOQ2BUvL-1" vertex="1">
          <mxGeometry y="78" width="320" height="8" as="geometry" />
        </mxCell>
        <mxCell id="_ihpI4agDZquPOQ2BUvL-4" value="+ GetWinner() : IJankenPlayer[]" style="text;strokeColor=none;fillColor=none;align=left;verticalAlign=top;spacingLeft=4;spacingRight=4;overflow=hidden;rotatable=0;points=[[0,0.5],[1,0.5]];portConstraint=eastwest;whiteSpace=wrap;html=1;" parent="_ihpI4agDZquPOQ2BUvL-1" vertex="1">
          <mxGeometry y="86" width="320" height="26" as="geometry" />
        </mxCell>
        <mxCell id="_ihpI4agDZquPOQ2BUvL-15" value="" style="html=1;verticalAlign=bottom;endArrow=open;curved=0;rounded=0;endFill=0;endSize=12;" parent="1" source="pgCef0U5E73DQMShRHS5-7" target="_ihpI4agDZquPOQ2BUvL-1" edge="1">
          <mxGeometry width="80" relative="1" as="geometry">
            <mxPoint x="-790" y="614" as="sourcePoint" />
            <mxPoint x="-860" y="614" as="targetPoint" />
          </mxGeometry>
        </mxCell>
        <mxCell id="_ihpI4agDZquPOQ2BUvL-16" value="MainPlayer" style="swimlane;fontStyle=1;align=center;verticalAlign=top;childLayout=stackLayout;horizontal=1;startSize=26;horizontalStack=0;resizeParent=1;resizeParentMax=0;resizeLast=0;collapsible=1;marginBottom=0;whiteSpace=wrap;html=1;" parent="1" vertex="1">
          <mxGeometry x="-1085" y="390" width="190" height="60" as="geometry" />
        </mxCell>
        <mxCell id="_ihpI4agDZquPOQ2BUvL-17" value="+ hand : JankenHands" style="text;strokeColor=none;fillColor=none;align=left;verticalAlign=top;spacingLeft=4;spacingRight=4;overflow=hidden;rotatable=0;points=[[0,0.5],[1,0.5]];portConstraint=eastwest;whiteSpace=wrap;html=1;" parent="_ihpI4agDZquPOQ2BUvL-16" vertex="1">
          <mxGeometry y="26" width="190" height="26" as="geometry" />
        </mxCell>
        <mxCell id="_ihpI4agDZquPOQ2BUvL-18" value="" style="line;strokeWidth=1;fillColor=none;align=left;verticalAlign=middle;spacingTop=-1;spacingLeft=3;spacingRight=3;rotatable=0;labelPosition=right;points=[];portConstraint=eastwest;strokeColor=inherit;" parent="_ihpI4agDZquPOQ2BUvL-16" vertex="1">
          <mxGeometry y="52" width="190" height="8" as="geometry" />
        </mxCell>
        <mxCell id="_ihpI4agDZquPOQ2BUvL-20" value="" style="endArrow=block;dashed=1;endFill=0;endSize=12;html=1;rounded=0;" parent="1" source="_ihpI4agDZquPOQ2BUvL-16" target="pgCef0U5E73DQMShRHS5-14" edge="1">
          <mxGeometry width="160" relative="1" as="geometry">
            <mxPoint x="-890" y="364" as="sourcePoint" />
            <mxPoint x="-730" y="364" as="targetPoint" />
          </mxGeometry>
        </mxCell>
        <mxCell id="_ihpI4agDZquPOQ2BUvL-22" value="" style="html=1;verticalAlign=bottom;endArrow=open;curved=0;rounded=0;endFill=0;endSize=12;" parent="1" source="dhE8wxLYe0IxyUodfGGd-17" target="_ihpI4agDZquPOQ2BUvL-1" edge="1">
          <mxGeometry width="80" relative="1" as="geometry">
            <mxPoint x="-670" y="683" as="sourcePoint" />
            <mxPoint x="-670" y="730" as="targetPoint" />
          </mxGeometry>
        </mxCell>
        <mxCell id="_ihpI4agDZquPOQ2BUvL-23" value="" style="html=1;verticalAlign=bottom;endArrow=open;rounded=0;endFill=0;endSize=12;edgeStyle=orthogonalEdgeStyle;" parent="1" source="dhE8wxLYe0IxyUodfGGd-17" target="_ihpI4agDZquPOQ2BUvL-16" edge="1">
          <mxGeometry width="80" relative="1" as="geometry">
            <mxPoint x="-490" y="717" as="sourcePoint" />
            <mxPoint x="-565" y="741" as="targetPoint" />
            <Array as="points">
              <mxPoint x="-570" y="550" />
              <mxPoint x="-570" y="433" />
            </Array>
          </mxGeometry>
        </mxCell>
        <mxCell id="_ihpI4agDZquPOQ2BUvL-24" value="HandSelectUIで選択した手を登録" style="edgeLabel;html=1;align=center;verticalAlign=middle;resizable=0;points=[];" parent="_ihpI4agDZquPOQ2BUvL-23" vertex="1" connectable="0">
          <mxGeometry x="0.3303" y="-1" relative="1" as="geometry">
            <mxPoint x="1" as="offset" />
          </mxGeometry>
        </mxCell>
        <mxCell id="PY_Y1VQJbNHsJaboNbui-1" value="HandSelectAgain" style="rounded=1;whiteSpace=wrap;html=1;arcSize=40;fontColor=#000000;fillColor=#ffffc0;strokeColor=#ff0000;" parent="1" vertex="1">
          <mxGeometry x="-670" y="1570" width="120" height="40" as="geometry" />
        </mxCell>
        <mxCell id="PY_Y1VQJbNHsJaboNbui-2" value="" style="html=1;verticalAlign=bottom;endArrow=open;endSize=8;strokeColor=#ff0000;rounded=0;" parent="1" edge="1">
          <mxGeometry relative="1" as="geometry">
            <mxPoint x="-473" y="1599.5" as="targetPoint" />
            <mxPoint x="-550" y="1599.5" as="sourcePoint" />
          </mxGeometry>
        </mxCell>
        <mxCell id="PY_Y1VQJbNHsJaboNbui-3" value="Judge()" style="edgeLabel;html=1;align=center;verticalAlign=middle;resizable=0;points=[];" parent="PY_Y1VQJbNHsJaboNbui-2" vertex="1" connectable="0">
          <mxGeometry x="-0.1429" y="4" relative="1" as="geometry">
            <mxPoint x="7" y="15" as="offset" />
          </mxGeometry>
        </mxCell>
        <mxCell id="PY_Y1VQJbNHsJaboNbui-10" value="画面上のキャラクターと、システム上のプレイヤーを&lt;br&gt;どこかで結び付けておく必要がある&lt;br&gt;（キャラクターに対応するプレイヤーがどの手を出したのか知る必要がある）" style="text;html=1;align=center;verticalAlign=middle;resizable=0;points=[];autosize=1;strokeColor=none;fillColor=none;" parent="1" vertex="1">
          <mxGeometry x="-610" y="120" width="440" height="60" as="geometry" />
        </mxCell>
        <mxCell id="0tLeJH_Af3l9i-FZOveU-14" value="&amp;lt;&amp;lt;enumeration&amp;gt;&amp;gt;&lt;br&gt;&lt;b&gt;PushedButton&lt;/b&gt;" style="swimlane;fontStyle=0;align=center;verticalAlign=top;childLayout=stackLayout;horizontal=1;startSize=40;horizontalStack=0;resizeParent=1;resizeParentMax=0;resizeLast=0;collapsible=0;marginBottom=0;html=1;whiteSpace=wrap;" parent="1" vertex="1">
          <mxGeometry x="-235" y="1280" width="140" height="130" as="geometry" />
        </mxCell>
        <mxCell id="0tLeJH_Af3l9i-FZOveU-15" value="ReplayButton" style="text;html=1;strokeColor=none;fillColor=none;align=left;verticalAlign=middle;spacingLeft=4;spacingRight=4;overflow=hidden;rotatable=0;points=[[0,0.5],[1,0.5]];portConstraint=eastwest;whiteSpace=wrap;" parent="0tLeJH_Af3l9i-FZOveU-14" vertex="1">
          <mxGeometry y="40" width="140" height="30" as="geometry" />
        </mxCell>
        <mxCell id="0tLeJH_Af3l9i-FZOveU-16" value="QuitButton" style="text;html=1;strokeColor=none;fillColor=none;align=left;verticalAlign=middle;spacingLeft=4;spacingRight=4;overflow=hidden;rotatable=0;points=[[0,0.5],[1,0.5]];portConstraint=eastwest;whiteSpace=wrap;" parent="0tLeJH_Af3l9i-FZOveU-14" vertex="1">
          <mxGeometry y="70" width="140" height="30" as="geometry" />
        </mxCell>
        <mxCell id="0tLeJH_Af3l9i-FZOveU-21" value="Null" style="text;html=1;strokeColor=none;fillColor=none;align=left;verticalAlign=middle;spacingLeft=4;spacingRight=4;overflow=hidden;rotatable=0;points=[[0,0.5],[1,0.5]];portConstraint=eastwest;whiteSpace=wrap;" parent="0tLeJH_Af3l9i-FZOveU-14" vertex="1">
          <mxGeometry y="100" width="140" height="30" as="geometry" />
        </mxCell>
        <mxCell id="0tLeJH_Af3l9i-FZOveU-20" value="" style="endArrow=diamondThin;endFill=0;endSize=24;html=1;rounded=0;" parent="1" source="0tLeJH_Af3l9i-FZOveU-14" target="dhE8wxLYe0IxyUodfGGd-43" edge="1">
          <mxGeometry width="160" relative="1" as="geometry">
            <mxPoint x="-390" y="926" as="sourcePoint" />
            <mxPoint x="-390" y="874" as="targetPoint" />
          </mxGeometry>
        </mxCell>
        <mxCell id="_58Jos7XsoTqrODfJy7j-1" value="&amp;lt;&amp;lt;enumeration&amp;gt;&amp;gt;&lt;br&gt;&lt;b&gt;MatchResult&lt;/b&gt;" style="swimlane;fontStyle=0;align=center;verticalAlign=top;childLayout=stackLayout;horizontal=1;startSize=40;horizontalStack=0;resizeParent=1;resizeParentMax=0;resizeLast=0;collapsible=0;marginBottom=0;html=1;whiteSpace=wrap;" parent="1" vertex="1">
          <mxGeometry x="-1120" y="688" width="140" height="160" as="geometry" />
        </mxCell>
        <mxCell id="_58Jos7XsoTqrODfJy7j-2" value="RockWin" style="text;html=1;strokeColor=none;fillColor=none;align=left;verticalAlign=middle;spacingLeft=4;spacingRight=4;overflow=hidden;rotatable=0;points=[[0,0.5],[1,0.5]];portConstraint=eastwest;whiteSpace=wrap;" parent="_58Jos7XsoTqrODfJy7j-1" vertex="1">
          <mxGeometry y="40" width="140" height="30" as="geometry" />
        </mxCell>
        <mxCell id="_58Jos7XsoTqrODfJy7j-3" value="ScissorsWin" style="text;html=1;strokeColor=none;fillColor=none;align=left;verticalAlign=middle;spacingLeft=4;spacingRight=4;overflow=hidden;rotatable=0;points=[[0,0.5],[1,0.5]];portConstraint=eastwest;whiteSpace=wrap;" parent="_58Jos7XsoTqrODfJy7j-1" vertex="1">
          <mxGeometry y="70" width="140" height="30" as="geometry" />
        </mxCell>
        <mxCell id="_58Jos7XsoTqrODfJy7j-4" value="PaperWin" style="text;html=1;strokeColor=none;fillColor=none;align=left;verticalAlign=middle;spacingLeft=4;spacingRight=4;overflow=hidden;rotatable=0;points=[[0,0.5],[1,0.5]];portConstraint=eastwest;whiteSpace=wrap;" parent="_58Jos7XsoTqrODfJy7j-1" vertex="1">
          <mxGeometry y="100" width="140" height="30" as="geometry" />
        </mxCell>
        <mxCell id="_58Jos7XsoTqrODfJy7j-5" value="Draw" style="text;html=1;strokeColor=none;fillColor=none;align=left;verticalAlign=middle;spacingLeft=4;spacingRight=4;overflow=hidden;rotatable=0;points=[[0,0.5],[1,0.5]];portConstraint=eastwest;whiteSpace=wrap;" parent="_58Jos7XsoTqrODfJy7j-1" vertex="1">
          <mxGeometry y="130" width="140" height="30" as="geometry" />
        </mxCell>
        <mxCell id="_58Jos7XsoTqrODfJy7j-6" value="" style="endArrow=diamondThin;endFill=0;endSize=24;html=1;rounded=0;" parent="1" source="_58Jos7XsoTqrODfJy7j-1" target="_ihpI4agDZquPOQ2BUvL-1" edge="1">
          <mxGeometry width="160" relative="1" as="geometry">
            <mxPoint x="-990" y="720" as="sourcePoint" />
            <mxPoint x="-830" y="720" as="targetPoint" />
          </mxGeometry>
        </mxCell>
        <mxCell id="_58Jos7XsoTqrODfJy7j-7" value="↑&lt;br&gt;次の設計時、参加するNPCの数などを&lt;br&gt;設定できるようにする" style="text;html=1;align=center;verticalAlign=middle;resizable=0;points=[];autosize=1;strokeColor=none;fillColor=none;" parent="1" vertex="1">
          <mxGeometry x="-755" y="1018" width="230" height="60" as="geometry" />
        </mxCell>
        <mxCell id="6NhfG5Sbr6kLieFwaXYO-1" value="GameSelect" style="rounded=1;whiteSpace=wrap;html=1;arcSize=40;fontColor=#000000;fillColor=#ffffc0;strokeColor=#ff0000;" vertex="1" parent="1">
          <mxGeometry x="-154" y="-86" width="120" height="40" as="geometry" />
        </mxCell>
        <mxCell id="6NhfG5Sbr6kLieFwaXYO-2" value="Title" style="rounded=1;whiteSpace=wrap;html=1;arcSize=40;fontColor=#000000;fillColor=#ffffc0;strokeColor=#ff0000;" vertex="1" parent="1">
          <mxGeometry x="-154" y="-190" width="120" height="40" as="geometry" />
        </mxCell>
        <mxCell id="6NhfG5Sbr6kLieFwaXYO-3" value="ExitGame" style="rounded=1;whiteSpace=wrap;html=1;arcSize=40;fontColor=#000000;fillColor=#ffffc0;strokeColor=#ff0000;" vertex="1" parent="1">
          <mxGeometry x="-330" y="-190" width="120" height="40" as="geometry" />
        </mxCell>
        <mxCell id="6NhfG5Sbr6kLieFwaXYO-4" value="" style="html=1;verticalAlign=bottom;endArrow=open;endSize=8;strokeColor=#ff0000;rounded=0;startArrow=none;startFill=0;" edge="1" parent="1">
          <mxGeometry relative="1" as="geometry">
            <mxPoint x="-110" y="-86" as="targetPoint" />
            <mxPoint x="-110" y="-150" as="sourcePoint" />
          </mxGeometry>
        </mxCell>
        <mxCell id="6NhfG5Sbr6kLieFwaXYO-6" value="InGame" style="rounded=1;whiteSpace=wrap;html=1;arcSize=40;fontColor=#000000;fillColor=#ffffc0;strokeColor=#ff0000;" vertex="1" parent="1">
          <mxGeometry x="-154" y="30" width="120" height="40" as="geometry" />
        </mxCell>
        <mxCell id="6NhfG5Sbr6kLieFwaXYO-7" value="" style="html=1;verticalAlign=bottom;endArrow=open;endSize=8;strokeColor=#ff0000;rounded=0;startArrow=none;startFill=0;" edge="1" parent="1">
          <mxGeometry relative="1" as="geometry">
            <mxPoint x="-110" y="30" as="targetPoint" />
            <mxPoint x="-110" y="-46" as="sourcePoint" />
          </mxGeometry>
        </mxCell>
        <mxCell id="6NhfG5Sbr6kLieFwaXYO-9" value="" style="html=1;verticalAlign=bottom;endArrow=open;endSize=8;strokeColor=#ff0000;rounded=0;startArrow=none;startFill=0;" edge="1" parent="1">
          <mxGeometry relative="1" as="geometry">
            <mxPoint x="-80" y="-46" as="targetPoint" />
            <mxPoint x="-80" y="30" as="sourcePoint" />
          </mxGeometry>
        </mxCell>
        <mxCell id="6NhfG5Sbr6kLieFwaXYO-11" value="" style="html=1;verticalAlign=bottom;endArrow=open;endSize=8;strokeColor=#ff0000;rounded=0;startArrow=none;startFill=0;" edge="1" parent="1" source="6NhfG5Sbr6kLieFwaXYO-2" target="6NhfG5Sbr6kLieFwaXYO-3">
          <mxGeometry relative="1" as="geometry">
            <mxPoint x="-544" y="70" as="targetPoint" />
            <mxPoint x="-360" y="-130" as="sourcePoint" />
          </mxGeometry>
        </mxCell>
        <mxCell id="6NhfG5Sbr6kLieFwaXYO-13" value="" style="html=1;verticalAlign=bottom;endArrow=open;endSize=8;strokeColor=#ff0000;rounded=0;startArrow=none;startFill=0;" edge="1" parent="1">
          <mxGeometry relative="1" as="geometry">
            <mxPoint x="-80" y="-150" as="targetPoint" />
            <mxPoint x="-80" y="-86" as="sourcePoint" />
          </mxGeometry>
        </mxCell>
      </root>
    </mxGraphModel>
  </diagram>
</mxfile>
